<?xml version="1.0" encoding="UTF-8"?>
<svg width="700pt" height="700pt" version="1.1" viewBox="0 0 700 700" xmlns="http://www.w3.org/2000/svg" xmlns:xlink="http://www.w3.org/1999/xlink">
 <g>
  <path d="m450.8 316.4c0-29.121 23.52-52.641 52.641-52.641 6.7188 0 12.32 5.6016 12.32 12.32s-5.6016 12.32-12.32 12.32c-15.121 0-27.441 12.32-27.441 27.441 0 6.7188-5.6016 12.32-12.32 12.32s-12.879-4.4805-12.879-11.762zm-377.44 0c0-34.719 14.559-66.078 37.52-88.48 3.3594-2.8008 6.1602-5.6016 9.5195-8.3984l46.48-39.199c17.922-12.879 39.199-20.719 62.719-22.398l-2.2383 2.2383 28-28.559c7.8398-7.2812 18.48-11.762 29.68-11.762 19.602 0 36.398 12.879 42 30.238 6.1602-3.9219 14-6.1602 21.84-6.1602h3.3594c7.2812 0.55859 14 2.8008 19.602 6.1602 5.6016-17.922 22.398-30.801 42-30.801 11.762 0 21.84 4.4805 29.68 11.762l25.762 25.762c22.961 1.6797 44.801 9.5195 62.719 22.398l46.48 39.199c3.3594 2.8008 6.7188 5.6016 9.5195 8.3984 22.961 22.398 37.52 53.762 37.52 88.48 0 68.32-55.441 123.76-123.76 123.76-62.719 0-114.8-47.039-122.64-108.08-8.9609 5.0391-19.602 8.3984-30.801 8.3984-11.199 0-21.84-2.8008-30.801-8.3984-7.2812 61.039-59.359 108.08-122.64 108.08-66.637 1.1211-121.52-54.32-121.52-122.64zm345.52 0c0 46.48 37.52 84.559 84.559 84.559s84.559-37.52 84.559-84.559c0-47.039-37.52-84.559-84.559-84.559s-84.559 38.082-84.559 84.559zm-96.32-38.637c0 15.121 12.32 27.441 27.441 27.441s27.441-12.32 27.441-27.441c0-15.121-12.32-27.441-27.441-27.441s-27.441 12.32-27.441 27.441zm-210 38.637c0 46.48 37.52 84.559 84.559 84.559 46.48 0 84.559-37.52 84.559-84.559 0-47.039-37.52-84.559-84.559-84.559-47.039 0.55859-84.559 38.082-84.559 84.559zm44.242 12.883c6.7188 0 12.32-5.6016 12.32-12.32 0-15.121 12.32-27.441 27.441-27.441 6.7188 0 12.32-5.6016 12.32-12.32s-5.6016-12.32-12.32-12.32c-29.121 0-52.641 23.52-52.641 52.641 0 6.1602 5.5977 11.762 12.879 11.762z"/>
 </g>
</svg>
