<svg xmlns="http://www.w3.org/2000/svg" viewBox="0 0 1809.32 1833.89"><defs><style>.cls-1{isolation:isolate;}.cls-2,.cls-8{fill:#150033;}.cls-3{fill:#fff193;}.cls-4{fill:#ee9245;}.cls-5{fill:#fff;}.cls-6{fill:#e51717;}.cls-7{fill:#ddd;}.cls-8{mix-blend-mode:multiply;}.cls-16,.cls-18,.cls-29,.cls-8{opacity:0.2;}.cls-9{fill:#f9f1cd;}.cls-10{fill:#c8cedb;}.cls-11{fill:#a9b1bf;}.cls-12{fill:#19b5ff;}.cls-13{fill:#5fd2ff;}.cls-14{fill:#f77272;}.cls-15{fill:#4293ea;}.cls-17{fill:#686c77;}.cls-19,.cls-29{fill:#000626;}.cls-20{opacity:0.3;}.cls-21{opacity:0.4;}.cls-22{fill:#666d76;}.cls-23{fill:#7a8087;}.cls-24{opacity:0.15;}.cls-25{fill:#fad622;}.cls-26{fill:#f79e21;}.cls-27{fill:#ffb65f;}.cls-28{fill:none;}.cls-30{fill:#23c6f9;}.cls-31{fill:#50cdef;}.cls-32{fill:#8ee1f4;}.cls-33{fill:#676d76;}.cls-34{fill:#797e84;}.cls-35{fill:#bec3c7;}.cls-36{fill:#f2f0f5;}.cls-37{fill:#c10c0c;}.cls-38{fill:#1affc8;}.cls-39{fill:#80ffde;}.cls-40{fill:#ffce4f;}.cls-41{fill:#dda22c;}.cls-42{fill:#e8b442;}.cls-43{fill:#e97b07;}</style></defs><g class="cls-1"><g id="OBJECTS"><g id="_2" data-name="2"><path class="cls-2" d="M1498.53,1687.3a13.1,13.1,0,0,1-9.77-4.12,15.53,15.53,0,0,1-2.38-3.35,17.82,17.82,0,0,1-7.36,1.75h0a13.65,13.65,0,0,1-11.9-7c-2.43-4-3.78-9.64-4.14-17.27-.5-10.76,1.19-17.79,5.32-22.11a13.09,13.09,0,0,1,9.71-4.11,17.74,17.74,0,0,1,5.41.91,16.44,16.44,0,0,1,3.53-5.9,12.09,12.09,0,0,1,8.88-3.77c4.17,0,8.58,1.94,13.5,5.93,3.07,2.49,12.43,10.08,10.76,19.63a12.81,12.81,0,0,1-1.95,4.88c2.56,3.35,4.89,7.9,4.72,13.19-.15,4.51-2.23,11.08-11.26,16.8C1506.74,1685.81,1502.46,1687.3,1498.53,1687.3Z" transform="translate(-124.39 -121.54)"/><path class="cls-3" d="M1507.85,1652.28s18,13.14,0,24.53-16.91-8.82-16.91-8.82-19.49,20.59-21-11,18.75-14,18.75-14-.73-23,16.18-9.31S1507.85,1652.28,1507.85,1652.28Z" transform="translate(-124.39 -121.54)"/><path class="cls-4" d="M1502.4,1653s-7.35,3-7.72-6.24c0,0-4.41,1.45-2.2,6.24,0,0-11-1.47-8.83,5,0,0,3.39-2.4,9.23,0,0,0,5.48-.92,5.48,5,0,0,4.05-6.1-2.2-8.09A4.52,4.52,0,0,0,1502.4,1653Z" transform="translate(-124.39 -121.54)"/><path class="cls-2" d="M516.69,1472.67a13.11,13.11,0,0,1-9.77-4.13,15.05,15.05,0,0,1-2.38-3.35,17.71,17.71,0,0,1-7.36,1.76h0a13.66,13.66,0,0,1-11.9-7c-2.43-4-3.78-9.64-4.14-17.27-.5-10.76,1.19-17.78,5.32-22.11a13.11,13.11,0,0,1,9.7-4.1,17.34,17.34,0,0,1,5.41.91,16.56,16.56,0,0,1,3.54-5.91,12.13,12.13,0,0,1,8.88-3.77c4.16,0,8.58,1.94,13.49,5.93,3.08,2.5,12.43,10.09,10.77,19.63a12.81,12.81,0,0,1-2,4.88c2.56,3.35,4.89,7.9,4.72,13.2-.15,4.5-2.23,11.07-11.26,16.79C524.9,1471.17,520.62,1472.67,516.69,1472.67Z" transform="translate(-124.39 -121.54)"/><path class="cls-3" d="M526,1437.64s18,13.14,0,24.54-16.91-8.83-16.91-8.83-19.49,20.59-21-11,18.75-14,18.75-14-.73-23,16.18-9.31S526,1437.64,526,1437.64Z" transform="translate(-124.39 -121.54)"/><path class="cls-4" d="M520.56,1438.32s-7.35,3-7.72-6.24c0,0-4.41,1.45-2.2,6.24,0,0-11-1.47-8.83,5,0,0,3.39-2.39,9.23,0,0,0,5.48-.91,5.48,5,0,0,4.05-6.1-2.2-8.09A4.51,4.51,0,0,0,520.56,1438.32Z" transform="translate(-124.39 -121.54)"/><path class="cls-2" d="M639.14,1444.08c-8.73,0-13.11-5.23-14.29-10.12a14.84,14.84,0,0,1,1.84-11.06,10.72,10.72,0,0,1-3.39-7.12c-.21-4.72,2.84-8.67,9.07-11.71a22,22,0,0,1,9.6-2.51c7.8,0,11.86,5.35,13.56,9.89,4,2.27,10.41,7,10.47,14,0,6-4.37,11.07-13.14,15.09A33.57,33.57,0,0,1,639.14,1444.08Z" transform="translate(-124.39 -121.54)"/><path class="cls-3" d="M636.6,1421.85s-14.85-5.64-1.49-12.18,15.15,6.09,15.15,6.09,21.38,9.36,0,19.16S626.2,1427.2,636.6,1421.85Z" transform="translate(-124.39 -121.54)"/><path class="cls-4" d="M643.23,1418.22s4.15,5.62.81,9.41C644,1427.63,656.55,1422.42,643.23,1418.22Z" transform="translate(-124.39 -121.54)"/><path class="cls-2" d="M1581.87,1800.88c-8.73,0-13.1-5.23-14.29-10.12a14.89,14.89,0,0,1,1.84-11.06,10.69,10.69,0,0,1-3.38-7.12c-.22-4.73,2.83-8.67,9.06-11.72a22.19,22.19,0,0,1,9.61-2.51c7.79,0,11.85,5.36,13.56,9.89,4,2.28,10.4,7,10.47,14,0,6-4.37,11.08-13.15,15.1A33.69,33.69,0,0,1,1581.87,1800.88Z" transform="translate(-124.39 -121.54)"/><path class="cls-3" d="M1579.33,1778.65s-14.85-5.65-1.48-12.18,15.14,6.09,15.14,6.09,21.38,9.35,0,19.15S1568.94,1784,1579.33,1778.65Z" transform="translate(-124.39 -121.54)"/><path class="cls-4" d="M1586,1775s4.14,5.63.81,9.42C1586.78,1784.43,1599.28,1779.21,1586,1775Z" transform="translate(-124.39 -121.54)"/><path class="cls-2" d="M335.73,1822.38c3.12-12.66,12.27-17.14,19.79-17.11a22.19,22.19,0,0,1,15.38,6.62,16,16,0,0,1,11.54-2.37c6.94,1.38,11.56,7.21,13.76,17.34a33.13,33.13,0,0,1,.21,14.83c-2.79,11.31-12,15.28-19.2,16.13-4.73,5-13.88,12.59-24.12,10.16-8.71-2.06-14.5-10.29-17.19-24.45C334.34,1835.36,334.29,1828.25,335.73,1822.38Z" transform="translate(-124.39 -121.54)"/><path class="cls-3" d="M368.89,1826.64s13.49-19.52,18.19,2.19-14.24,19.8-14.24,19.8-21.21,27.67-27.78-6.85S364.85,1809.65,368.89,1826.64Z" transform="translate(-124.39 -121.54)"/><path class="cls-4" d="M371.79,1837.56s-9.64,4-14-2.19C357.84,1835.37,360.94,1855.37,371.79,1837.56Z" transform="translate(-124.39 -121.54)"/><path class="cls-2" d="M1739.06,1447.17c13,0,19.57-7.82,21.34-15.13a22.13,22.13,0,0,0-2.75-16.51,16,16,0,0,0,5.06-10.64c.33-7.06-4.23-13-13.54-17.5a33,33,0,0,0-14.34-3.76c-11.65,0-17.72,8-20.26,14.78-6,3.4-15.55,10.47-15.64,21-.08,8.95,6.53,16.54,19.63,22.55C1726.12,1445.41,1733,1447.17,1739.06,1447.17Z" transform="translate(-124.39 -121.54)"/><path class="cls-3" d="M1742.85,1414s22.19-8.43,2.22-18.19-22.62,9.1-22.62,9.1-32,14,0,28.61S1758.38,1421.94,1742.85,1414Z" transform="translate(-124.39 -121.54)"/><path class="cls-4" d="M1732.94,1408.52s-6.19,8.41-1.21,14.07C1731.73,1422.59,1713.05,1414.8,1732.94,1408.52Z" transform="translate(-124.39 -121.54)"/></g><g id="_1" data-name="1"><path class="cls-2" d="M835.64,666.21a18.72,18.72,0,0,1-13.94-5.89,21.26,21.26,0,0,1-3.39-4.78,25.5,25.5,0,0,1-10.51,2.51h0c-7,0-13.06-3.57-17-10-3.46-5.7-5.4-13.76-5.9-24.66-.72-15.35,1.69-25.38,7.58-31.55A18.72,18.72,0,0,1,806.35,586a25.45,25.45,0,0,1,7.72,1.29,23.62,23.62,0,0,1,5-8.42,17.26,17.26,0,0,1,12.67-5.38c6,0,12.25,2.77,19.26,8.46,4.39,3.56,17.75,14.4,15.37,28a18.38,18.38,0,0,1-2.78,7c3.65,4.79,7,11.28,6.73,18.84-.21,6.43-3.17,15.81-16.07,24C847.36,664.08,841.26,666.21,835.64,666.21Z" transform="translate(-124.39 -121.54)"/><path class="cls-3" d="M849,616.21s25.72,18.76,0,35-24.14-12.6-24.14-12.6S797,668,794.9,622.9,821.66,603,821.66,603s-1-32.87,23.09-13.28S849,616.21,849,616.21Z" transform="translate(-124.39 -121.54)"/><path class="cls-4" d="M841.18,617.19s-10.5,4.21-11-8.91c0,0-6.29,2.07-3.14,8.91,0,0-15.75-2.1-12.6,7.09,0,0,4.83-3.42,13.17,0,0,0,7.82-1.31,7.82,7.09,0,0,5.79-8.7-3.14-11.55C832.26,619.82,837.5,623,841.18,617.19Z" transform="translate(-124.39 -121.54)"/><path class="cls-2" d="M1236.13,649.48a16.38,16.38,0,0,1-12-5.09,17.87,17.87,0,0,1-1.49-1.81,20.06,20.06,0,0,1-6.32,1.09h0c-6.69,0-18.07-3.57-19.18-27.45-.55-11.78,1.42-19.6,6.2-24.6a16.34,16.34,0,0,1,12-5.07,19.34,19.34,0,0,1,3.82.4,18.38,18.38,0,0,1,3.2-4.6,15.37,15.37,0,0,1,11.1-4.7c4.92,0,10,2.18,15.53,6.67,9.26,7.51,13.29,15.14,12,22.68a15.58,15.58,0,0,1-1.41,4.31,23.18,23.18,0,0,1,4.26,13.67c-.17,5.28-2.53,12.93-12.78,19.41C1245.55,647.82,1240.69,649.48,1236.13,649.48Z" transform="translate(-124.39 -121.54)"/><path class="cls-3" d="M1245.61,611s18.32,13.36,0,25-17.19-9-17.19-9-19.81,20.93-21.31-11.22,19.06-14.2,19.06-14.2-.74-23.42,16.45-9.47S1245.61,611,1245.61,611Z" transform="translate(-124.39 -121.54)"/><path class="cls-4" d="M1240.07,611.68s-7.47,3-7.85-6.34c0,0-4.48,1.48-2.24,6.34,0,0-11.21-1.49-9,5.06,0,0,3.44-2.44,9.38,0,0,0,5.57-.93,5.57,5,0,0,4.12-6.2-2.24-8.23A4.59,4.59,0,0,0,1240.07,611.68Z" transform="translate(-124.39 -121.54)"/><path class="cls-2" d="M1094.2,646.18c-14,0-21-8.37-22.89-16.22a23.77,23.77,0,0,1,3-17.71,17.19,17.19,0,0,1-5.43-11.41c-.35-7.58,4.54-13.89,14.53-18.78a35.39,35.39,0,0,1,15.38-4c12.5,0,19,8.58,21.73,15.85,6.42,3.64,16.68,11.23,16.78,22.51.08,9.61-7,17.74-21.06,24.19C1108.08,644.3,1100.69,646.18,1094.2,646.18Z" transform="translate(-124.39 -121.54)"/><path class="cls-3" d="M1090.13,610.56s-23.79-9-2.38-19.51S1112,600.8,1112,600.8s34.26,15,0,30.7S1073.48,619.12,1090.13,610.56Z" transform="translate(-124.39 -121.54)"/><path class="cls-4" d="M1100.76,604.73s6.65,9,1.3,15.09C1102.06,619.82,1122.1,611.47,1100.76,604.73Z" transform="translate(-124.39 -121.54)"/><path class="cls-2" d="M956.45,565.68c-8.38,0-16.28-5.44-24.15-16.63-12.68-18-11.1-30-7.54-36.84s10.74-11.15,19-11.15a25.36,25.36,0,0,1,8.72,1.58c3.15-4.58,7.64-7.79,13.63-7.79,9.36,0,15.64,8.47,17.71,11.25,8.19,11.06,7.88,19.85,6.17,25.28a24.29,24.29,0,0,1-11,13.31C975.46,555.22,968,565.68,956.45,565.68Z" transform="translate(-124.39 -121.54)"/><path class="cls-3" d="M957.07,518s4.56-25.05,18.75-5.9-5.16,25.64-5.16,25.64-8.5,36.42-30.18,5.59S945.62,503.14,957.07,518Z" transform="translate(-124.39 -121.54)"/><path class="cls-4" d="M964.74,527.35s-7.66,8.17-14.6,4C950.14,531.37,962,549.55,964.74,527.35Z" transform="translate(-124.39 -121.54)"/></g><g id="_1-2" data-name="1"><polygon class="cls-2" points="100.44 509.06 73.43 498.37 100.44 487.68 111.12 460.68 121.81 487.68 148.82 498.37 121.81 509.06 111.12 536.06 100.44 509.06"/><polygon class="cls-3" points="111.12 479.05 116.6 492.89 130.45 498.37 116.6 503.85 111.12 517.69 105.64 503.85 91.8 498.37 105.64 492.89 111.12 479.05"/><polygon class="cls-2" points="590.78 179.37 574.78 173.04 590.78 166.71 597.11 150.71 603.43 166.71 619.43 173.04 603.43 179.37 597.11 195.36 590.78 179.37"/><polygon class="cls-3" points="597.11 161.59 600.35 169.79 608.55 173.04 600.35 176.28 597.11 184.48 593.86 176.28 585.66 173.04 593.86 169.79 597.11 161.59"/><polygon class="cls-2" points="1541.09 613.59 1527.58 608.24 1541.09 602.9 1546.43 589.39 1551.77 602.9 1565.28 608.24 1551.77 613.59 1546.43 627.09 1541.09 613.59"/><polygon class="cls-3" points="1546.43 598.58 1549.17 605.5 1556.09 608.24 1549.17 610.98 1546.43 617.9 1543.69 610.98 1536.77 608.24 1543.69 605.5 1546.43 598.58"/><polygon class="cls-2" points="1394.83 216.49 1367.83 205.8 1394.83 195.11 1405.52 168.1 1416.21 195.11 1443.21 205.8 1416.21 216.49 1405.52 243.49 1394.83 216.49"/><polygon class="cls-3" points="1405.52 186.47 1411 200.32 1424.84 205.8 1411 211.28 1405.52 225.12 1400.04 211.28 1386.2 205.8 1400.04 200.32 1405.52 186.47"/><polygon class="cls-2" points="1254.14 131.24 1240.64 125.89 1254.14 120.55 1259.48 107.05 1264.83 120.55 1278.33 125.89 1264.83 131.24 1259.48 144.74 1254.14 131.24"/><polygon class="cls-3" points="1259.48 116.23 1262.22 123.15 1269.15 125.89 1262.22 128.63 1259.48 135.55 1256.75 128.63 1249.82 125.89 1256.75 123.15 1259.48 116.23"/></g><g id="popcorn"><path class="cls-2" d="M917.26,1479.7c-2.51,0-5.08-.12-7.85-.35-46.17-3.95-82.93-43.42-83.87-89.94L765,927.92a39.47,39.47,0,0,1-29-38v-2.57a39.41,39.41,0,0,1,20.35-34.47,45.93,45.93,0,0,1,2.06-6.09,31.59,31.59,0,0,1-6.17-17.34c-.47-10.16,3.65-24.56,25.93-35.46l1.14-.54c-.79-22.13,3.3-37.11,12.81-47.08a34.43,34.43,0,0,1,25.51-10.83,38.86,38.86,0,0,1,4.41.25,37.77,37.77,0,0,1,5-6.49,33.07,33.07,0,0,1,23.92-10.15,40.11,40.11,0,0,1,17.16,4.05c9.06-18.16,25.07-19.72,30.24-19.72a35.06,35.06,0,0,1,8.79,1.14c.39-.37.78-.72,1.18-1.07a30.83,30.83,0,0,1-.76-5.58c-.47-10.16,3.65-24.57,25.93-35.46,9.1-4.45,17.88-6.71,26.1-6.71,20.57,0,31.44,13,36.29,21.31a42.35,42.35,0,0,1,4.52-.24,47.4,47.4,0,0,1,11.58,1.48,67,67,0,0,1,22.32-4.35,41,41,0,0,1,16.19,3.15,40.44,40.44,0,0,1,4.36.26,37.36,37.36,0,0,1,5-6.5,33,33,0,0,1,23.92-10.15c10.21,0,20.56,4.37,31.64,13.36,4.67,3.78,16.12,13.08,21.45,26.31,10.27.11,20.82,4.27,32.23,12.7l1.43,1.07a36,36,0,0,1,3.73-4.55,33,33,0,0,1,23.92-10.15c10.21,0,20.56,4.37,31.63,13.36,6.9,5.59,27.87,22.61,23.75,46.32a47.83,47.83,0,0,1,5.68-.35c17.24,0,31.5,9.57,38.59,25.75,10.32,6.44,25.42,19.07,25.81,38,.21,10.42-3.85,19.84-12.08,28a34.64,34.64,0,0,1,.75,9.08,39.24,39.24,0,0,1,11.39,27.67v2.57a39.38,39.38,0,0,1-27.26,37.48l-60.66,462c-.93,46.52-37.7,86-83.87,89.94-2.76.23-5.33.35-7.85.35Z" transform="translate(-124.39 -121.54)"/><g id="popcorn-2" data-name="popcorn"><path class="cls-2" d="M993.29,921.28a39.41,39.41,0,0,1-21.59-6,43.56,43.56,0,0,1-18.59,4.54,31.94,31.94,0,0,1-20.75-7.44,57.59,57.59,0,0,1-20.15,3.82,39.32,39.32,0,0,1-21.57-6A43.52,43.52,0,0,1,872,914.75c-11.27,0-21.14-5.52-27.8-15.53a28.36,28.36,0,0,1-12.27-10.72,38.26,38.26,0,0,1-7.54,2.07c-9.69,3.83-18.69,5.77-26.73,5.77-21.27,0-31.94-12.82-34.85-24.82a36,36,0,0,1,3.77-25.71c-4.64-5-7.13-10.62-7.41-16.68-.54-11.74,6.87-21.44,22-28.85,1.8-.88,3.59-1.66,5.31-2.34-.07-1-.13-2-.18-3.07-1-21,2.46-34.92,10.82-43.67a27.56,27.56,0,0,1,20.44-8.66,34.53,34.53,0,0,1,8.21,1,32.75,32.75,0,0,1,6.23-9.41,26.11,26.11,0,0,1,18.89-8c6.64,0,13.41,2.3,20.71,7,6.28-20.49,20.76-22.7,26.69-22.7a29.53,29.53,0,0,1,10.87,2.17,29.21,29.21,0,0,1,7.31-6.48,24,24,0,0,1-2-8.52c-.54-11.74,6.87-21.45,22-28.85,8.14-4,15.89-6,23-6,20.75,0,29.57,15.44,32.4,22.09a34.46,34.46,0,0,1,8.41-1,41,41,0,0,1,11.92,1.84c5.42-2.15,13.63-4.71,22-4.71a33.4,33.4,0,0,1,14.75,3.19c.46,0,.93,0,1.4,0a34,34,0,0,1,8.2,1.05,32.72,32.72,0,0,1,6.23-9.43,26.1,26.1,0,0,1,18.89-8c8.54,0,17.45,3.86,27.23,11.8,4.81,3.89,17.57,14.25,20.88,28.2a31.21,31.21,0,0,1,4.57-.33c8.85,0,18.17,3.7,28.48,11.33,2.22,1.64,4.18,3.19,6,4.73.73.13,1.44.29,2.15.46a32.45,32.45,0,0,1,6.23-9.43,26.07,26.07,0,0,1,18.89-8c8.54,0,17.44,3.86,27.22,11.8,6.11,5,24.69,20,21.25,39.71a27,27,0,0,1-3,8.41l.35.5c.68.33,1.34.66,2,1a45.42,45.42,0,0,1,13.22-2.11c15,0,27.36,8.8,33,23.54,9,5.23,24.06,16.52,24.41,33.34.19,9.55-4.17,18.18-13,25.65a28.49,28.49,0,0,1,1.42,13.55c-2.67,19.45-24.16,29.3-31.22,32.54-11.94,5.47-22.88,8.25-32.51,8.25a39.91,39.91,0,0,1-19.09-4.46c-9.67,5.55-20.45,8.62-30.33,8.62a39.34,39.34,0,0,1-21.59-6,43.43,43.43,0,0,1-18.64,4.57,32.28,32.28,0,0,1-21.85-8.51c-12.21,12.09-28.83,19.3-44.45,19.3a39.35,39.35,0,0,1-21.6-6,43.52,43.52,0,0,1-18.61,4.55A32.41,32.41,0,0,1,1028,909.9C1017.27,917.13,1004.62,921.28,993.29,921.28Z" transform="translate(-124.39 -121.54)"/><path class="cls-2" d="M917.26,1472.7c-2.31,0-4.68-.11-7.25-.33-42.8-3.66-76.8-40.31-77.48-83.48L769.2,906.46A19,19,0,0,1,788,885h485.23a19,19,0,0,1,18.82,21.46l-63.34,482.43c-.67,43.17-34.67,79.82-77.48,83.48-2.56.22-4.93.33-7.25.33Z" transform="translate(-124.39 -121.54)"/><path class="cls-3" d="M791.76,843.09S757.39,830,788.33,814.9,823.39,829,823.39,829s49.5,21.66,0,44.35S767.7,855.46,791.76,843.09Z" transform="translate(-124.39 -121.54)"/><path class="cls-4" d="M807.12,834.67s9.6,13,1.88,21.8C809,856.47,837.94,844.4,807.12,834.67Z" transform="translate(-124.39 -121.54)"/><path class="cls-3" d="M1235.4,849.41S1201,836.35,1232,821.22s35.06,14.1,35.06,14.1,49.5,21.65,0,44.34S1211.33,861.78,1235.4,849.41Z" transform="translate(-124.39 -121.54)"/><path class="cls-4" d="M1250.75,841s9.6,13,1.88,21.8C1252.63,862.8,1281.58,850.72,1250.75,841Z" transform="translate(-124.39 -121.54)"/><path class="cls-3" d="M1216.93,812.58s-34.38-13.07-3.44-28.19,35.06,14.09,35.06,14.09,49.5,21.66,0,44.35S1192.87,825,1216.93,812.58Z" transform="translate(-124.39 -121.54)"/><path class="cls-4" d="M1232.29,804.16s9.59,13,1.87,21.8C1234.16,826,1263.11,813.89,1232.29,804.16Z" transform="translate(-124.39 -121.54)"/><path class="cls-3" d="M1246.74,814.63s-34.37-13.06-3.43-28.18,35.06,14.09,35.06,14.09,49.5,21.66,0,44.34S1222.68,827,1246.74,814.63Z" transform="translate(-124.39 -121.54)"/><path class="cls-4" d="M1262.1,806.22s9.6,13,1.88,21.8C1264,828,1292.92,816,1262.1,806.22Z" transform="translate(-124.39 -121.54)"/><path class="cls-3" d="M969.82,779.86s-34.37-13.06-3.44-28.19,35.07,14.09,35.07,14.09,49.49,21.66,0,44.35S945.76,792.23,969.82,779.86Z" transform="translate(-124.39 -121.54)"/><path class="cls-4" d="M985.18,771.44s9.6,13,1.88,21.8C987.06,793.24,1016,781.17,985.18,771.44Z" transform="translate(-124.39 -121.54)"/><path class="cls-3" d="M947.1,711.61s-34.38-13.07-3.44-28.19,35.06,14.09,35.06,14.09,49.5,21.66,0,44.35S923,724,947.1,711.61Z" transform="translate(-124.39 -121.54)"/><path class="cls-4" d="M962.45,703.19s9.6,13,1.88,21.8C964.33,725,993.27,712.92,962.45,703.19Z" transform="translate(-124.39 -121.54)"/><path class="cls-3" d="M1004.15,737s-31.53,18.93-24.27-14.73,32.76-18.83,32.76-18.83,47.63-25.49,34.84,27.43S999,763.52,1004.15,737Z" transform="translate(-124.39 -121.54)"/><path class="cls-4" d="M1007,719.68s16.17.52,18.29,12C1025.33,731.69,1033.75,701.48,1007,719.68Z" transform="translate(-124.39 -121.54)"/><path class="cls-3" d="M916.65,737.44s2.07-34.37,33.69-11,6.88,30.25,6.88,30.25,23.92,2.06,9.21,25.44S916,813.75,907.72,794.5c0,0-32.31,28.19-41.25-13.75S885,752.57,885,752.57,885,706.5,916.65,737.44Z" transform="translate(-124.39 -121.54)"/><path class="cls-4" d="M898.16,764.51s21.39,6.19,4.21,17.88c0,0,8.25,13.06,16.5-4.82,0,0-5.5-13.75,18.56-6.18,0,0,2.75-8.25-8.25-6.88,0,0,5.5-12.37-6.19-17.18C923,747.33,938.64,763.82,898.16,764.51Z" transform="translate(-124.39 -121.54)"/><path class="cls-3" d="M963.6,799.19s2.06-34.38,33.69-11,6.87,30.25,6.87,30.25,23.93,2.06,9.22,25.43-50.47,31.63-58.72,12.38c0,0-32.31,28.19-41.25-13.75S932,814.31,932,814.31,932,768.25,963.6,799.19Z" transform="translate(-124.39 -121.54)"/><path class="cls-4" d="M945.11,826.26s21.39,6.19,4.2,17.87c0,0,8.25,13.07,16.5-4.81,0,0-5.5-13.75,18.56-6.19,0,0,2.75-8.24-8.25-6.87,0,0,5.5-12.37-6.18-17.19C969.94,809.07,985.59,825.57,945.11,826.26Z" transform="translate(-124.39 -121.54)"/><path class="cls-3" d="M902.31,832.16s2.06-34.38,33.69-11,6.87,30.25,6.87,30.25,23.93,2.06,9.22,25.43-50.47,31.63-58.72,12.38c0,0-32.31,28.19-41.25-13.75s18.57-28.19,18.57-28.19S870.69,801.22,902.31,832.16Z" transform="translate(-124.39 -121.54)"/><path class="cls-4" d="M883.82,859.23s21.39,6.19,4.2,17.87c0,0,8.25,13.07,16.5-4.81,0,0-5.5-13.75,18.56-6.19,0,0,2.75-8.24-8.25-6.87,0,0,5.5-12.37-6.18-17.19C908.65,842,924.3,858.54,883.82,859.23Z" transform="translate(-124.39 -121.54)"/><path class="cls-3" d="M983.39,837.24s2.06-34.37,33.68-11,6.88,30.25,6.88,30.25,23.93,2.06,9.21,25.44-50.46,31.62-58.71,12.37c0,0-32.31,28.19-41.25-13.75s18.56-28.18,18.56-28.18S951.76,806.31,983.39,837.24Z" transform="translate(-124.39 -121.54)"/><path class="cls-4" d="M964.89,864.31s21.4,6.19,4.21,17.88c0,0,8.25,13.06,16.5-4.81,0,0-5.5-13.75,18.56-6.19,0,0,2.75-8.25-8.25-6.88,0,0,5.5-12.37-6.19-17.18C989.72,847.13,1005.37,863.63,964.89,864.31Z" transform="translate(-124.39 -121.54)"/><path class="cls-3" d="M1075.42,832.16s2.06-34.38,33.68-11,6.88,30.25,6.88,30.25,23.93,2.06,9.21,25.43-50.46,31.63-58.71,12.38c0,0-32.31,28.19-41.25-13.75s18.56-28.19,18.56-28.19S1043.79,801.22,1075.42,832.16Z" transform="translate(-124.39 -121.54)"/><path class="cls-4" d="M1056.92,859.23s21.4,6.19,4.21,17.87c0,0,8.25,13.07,16.5-4.81,0,0-5.5-13.75,18.56-6.19,0,0,2.75-8.24-8.25-6.87,0,0,5.5-12.37-6.18-17.19C1081.76,842,1097.4,858.54,1056.92,859.23Z" transform="translate(-124.39 -121.54)"/><path class="cls-3" d="M910.33,793.78s2.07-34.37,33.69-11S950.9,813,950.9,813s23.92,2.07,9.21,25.44-50.46,31.63-58.71,12.38c0,0-32.31,28.18-41.25-13.75s18.56-28.19,18.56-28.19S878.71,762.85,910.33,793.78Z" transform="translate(-124.39 -121.54)"/><path class="cls-4" d="M891.84,820.86s21.39,6.18,4.21,17.87c0,0,8.25,13.06,16.5-4.81,0,0-5.5-13.75,18.56-6.19,0,0,2.75-8.25-8.25-6.87,0,0,5.5-12.38-6.19-17.19C916.67,803.67,932.32,820.17,891.84,820.86Z" transform="translate(-124.39 -121.54)"/><path class="cls-3" d="M1029.34,742.84s2.06-34.37,33.69-11,6.87,30.25,6.87,30.25,23.93,2.07,9.22,25.44-50.47,31.62-58.72,12.38c0,0-32.31,28.18-41.25-13.75S997.72,758,997.72,758,997.72,711.91,1029.34,742.84Z" transform="translate(-124.39 -121.54)"/><path class="cls-4" d="M1010.85,769.92s21.39,6.18,4.2,17.87c0,0,8.25,13.06,16.5-4.81,0,0-5.5-13.75,18.56-6.19,0,0,2.75-8.25-8.25-6.87,0,0,5.5-12.38-6.18-17.19C1035.68,752.73,1051.33,769.23,1010.85,769.92Z" transform="translate(-124.39 -121.54)"/><path class="cls-3" d="M1182,822.81s2.06-34.37,33.69-11,6.87,30.25,6.87,30.25,23.93,2.06,9.22,25.44-50.47,31.62-58.72,12.37c0,0-32.31,28.19-41.25-13.75s18.57-28.18,18.57-28.18S1150.33,791.88,1182,822.81Z" transform="translate(-124.39 -121.54)"/><path class="cls-4" d="M1163.46,849.88s21.39,6.19,4.2,17.88c0,0,8.25,13.06,16.5-4.81,0,0-5.5-13.75,18.56-6.19,0,0,2.75-8.25-8.25-6.88,0,0,5.5-12.37-6.18-17.18C1188.29,832.7,1203.94,849.2,1163.46,849.88Z" transform="translate(-124.39 -121.54)"/><path class="cls-3" d="M1121.52,742.84s2.07-34.37,33.69-11,6.88,30.25,6.88,30.25,23.92,2.07,9.21,25.44-50.46,31.62-58.71,12.38c0,0-32.31,28.18-41.25-13.75S1089.9,758,1089.9,758,1089.9,711.91,1121.52,742.84Z" transform="translate(-124.39 -121.54)"/><path class="cls-4" d="M1103,769.92s21.39,6.18,4.21,17.87c0,0,8.25,13.06,16.5-4.81,0,0-5.5-13.75,18.56-6.19,0,0,2.75-8.25-8.25-6.87,0,0,5.5-12.38-6.19-17.19C1127.86,752.73,1143.51,769.23,1103,769.92Z" transform="translate(-124.39 -121.54)"/><path class="cls-3" d="M873.38,785.36s33.68,24.57,0,45.88-31.63-16.5-31.63-16.5-36.43,38.5-39.18-20.63S837.63,768,837.63,768s-1.38-43.06,30.25-17.41S873.38,785.36,873.38,785.36Z" transform="translate(-124.39 -121.54)"/><path class="cls-4" d="M863.19,786.63s-13.75,5.52-14.44-11.67c0,0-8.25,2.72-4.12,11.67,0,0-20.63-2.75-16.5,9.29,0,0,6.33-4.47,17.26,0,0,0,10.24-1.71,10.24,9.29,0,0,7.57-11.4-4.12-15.12C851.51,790.09,858.38,794.18,863.19,786.63Z" transform="translate(-124.39 -121.54)"/><path class="cls-3" d="M1204.07,815.57s33.69,24.57,0,45.88-31.62-16.5-31.62-16.5-36.44,38.5-39.19-20.62,35.07-26.12,35.07-26.12-1.38-43.07,30.24-17.41S1204.07,815.57,1204.07,815.57Z" transform="translate(-124.39 -121.54)"/><path class="cls-4" d="M1193.89,816.85s-13.75,5.52-14.44-11.67c0,0-8.25,2.71-4.12,11.67,0,0-20.63-2.75-16.5,9.29,0,0,6.32-4.48,17.25,0,0,0,10.24-1.71,10.24,9.29,0,0,7.58-11.4-4.11-15.13C1182.21,820.3,1189.07,824.39,1193.89,816.85Z" transform="translate(-124.39 -121.54)"/><path class="cls-3" d="M873.38,833s33.68,24.57,0,45.88-31.63-16.5-31.63-16.5-36.43,38.5-39.18-20.62,35.06-26.13,35.06-26.13-1.38-43.06,30.25-17.4S873.38,833,873.38,833Z" transform="translate(-124.39 -121.54)"/><path class="cls-4" d="M863.19,834.3s-13.75,5.51-14.44-11.67c0,0-8.25,2.71-4.12,11.67,0,0-20.63-2.75-16.5,9.29,0,0,6.33-4.48,17.26,0,0,0,10.24-1.71,10.24,9.29,0,0,7.57-11.4-4.12-15.13C851.51,837.75,858.38,841.84,863.19,834.3Z" transform="translate(-124.39 -121.54)"/><path class="cls-3" d="M1063.24,829.94s33.68,24.57,0,45.88-31.63-16.5-31.63-16.5-36.44,38.5-39.19-20.62,35.07-26.13,35.07-26.13-1.38-43.06,30.25-17.4S1063.24,829.94,1063.24,829.94Z" transform="translate(-124.39 -121.54)"/><path class="cls-4" d="M1053.05,831.22s-13.75,5.51-14.44-11.67c0,0-8.25,2.71-4.12,11.67,0,0-20.63-2.75-16.5,9.29,0,0,6.33-4.48,17.25,0,0,0,10.25-1.71,10.25,9.29,0,0,7.57-11.4-4.12-15.13C1041.37,834.67,1048.24,838.76,1053.05,831.22Z" transform="translate(-124.39 -121.54)"/><path class="cls-3" d="M1081,777.61s33.69,24.57,0,45.88-31.63-16.5-31.63-16.5-36.43,38.5-39.18-20.62,35.06-26.12,35.06-26.12-1.38-43.07,30.25-17.41S1081,777.61,1081,777.61Z" transform="translate(-124.39 -121.54)"/><path class="cls-4" d="M1070.85,778.89s-13.75,5.52-14.44-11.67c0,0-8.25,2.71-4.12,11.67,0,0-20.63-2.75-16.5,9.29,0,0,6.33-4.48,17.26,0,0,0,10.24-1.71,10.24,9.29,0,0,7.58-11.4-4.12-15.13C1059.17,782.34,1066,786.43,1070.85,778.89Z" transform="translate(-124.39 -121.54)"/><path class="cls-3" d="M1131,810.09s33.69,24.57,0,45.88-31.62-16.5-31.62-16.5S1063,878,1060.21,818.85s35.06-26.13,35.06-26.13-1.37-43.06,30.25-17.4S1131,810.09,1131,810.09Z" transform="translate(-124.39 -121.54)"/><path class="cls-4" d="M1120.83,811.37s-13.75,5.51-14.43-11.67c0,0-8.25,2.71-4.13,11.67,0,0-20.62-2.75-16.5,9.29,0,0,6.33-4.48,17.26,0,0,0,10.24-1.71,10.24,9.29,0,0,7.58-11.4-4.11-15.13C1109.16,814.82,1116,818.91,1120.83,811.37Z" transform="translate(-124.39 -121.54)"/><path class="cls-3" d="M1220.59,765.71s33.69,24.56,0,45.88-31.62-16.5-31.62-16.5-36.44,38.5-39.19-20.63,35.06-26.12,35.06-26.12-1.37-43.07,30.25-17.41S1220.59,765.71,1220.59,765.71Z" transform="translate(-124.39 -121.54)"/><path class="cls-4" d="M1210.41,767s-13.75,5.52-14.44-11.67c0,0-8.25,2.72-4.13,11.67,0,0-20.62-2.75-16.5,9.29,0,0,6.33-4.48,17.26,0,0,0,10.24-1.71,10.24,9.29,0,0,7.58-11.4-4.11-15.12C1198.73,770.44,1205.59,774.53,1210.41,767Z" transform="translate(-124.39 -121.54)"/><path class="cls-3" d="M1106.2,727s33.68,24.56,0,45.87-31.63-16.5-31.63-16.5-36.43,38.5-39.18-20.62,35.06-26.12,35.06-26.12-1.38-43.07,30.25-17.41S1106.2,727,1106.2,727Z" transform="translate(-124.39 -121.54)"/><path class="cls-4" d="M1096,728.24s-13.75,5.52-14.44-11.67c0,0-8.25,2.72-4.12,11.67,0,0-20.63-2.75-16.5,9.29,0,0,6.33-4.48,17.26,0,0,0,10.24-1.71,10.24,9.29,0,0,7.57-11.4-4.12-15.13C1084.33,731.69,1091.2,735.78,1096,728.24Z" transform="translate(-124.39 -121.54)"/><path class="cls-3" d="M973.64,755.3s-34.37-13.06-3.43-28.18,35.06,14.09,35.06,14.09,49.5,21.66,0,44.34S949.58,767.68,973.64,755.3Z" transform="translate(-124.39 -121.54)"/><path class="cls-4" d="M989,746.89s9.6,13,1.88,21.8C990.88,768.69,1019.82,756.62,989,746.89Z" transform="translate(-124.39 -121.54)"/><path class="cls-5" d="M1084.24,904l-23.69,549.74H1144c1.9,0,3.78-.1,5.64-.26L1190.73,904Z" transform="translate(-124.39 -121.54)"/><path class="cls-6" d="M1190.73,904l-41.09,549.48a66,66,0,0,0,60.12-65.89L1273.25,904Z" transform="translate(-124.39 -121.54)"/><path class="cls-5" d="M977,904l23.69,549.74H917.26c-1.9,0-3.77-.1-5.63-.26L870.54,904Z" transform="translate(-124.39 -121.54)"/><polygon class="cls-6" points="906.24 782.45 852.64 782.45 876.33 1332.18 906.24 1332.18 936.15 1332.18 959.84 782.45 906.24 782.45"/><path class="cls-6" d="M870.54,904l41.09,549.48a66,66,0,0,1-60.12-65.89L788,904Z" transform="translate(-124.39 -121.54)"/><path class="cls-2" d="M1284.24,855H775.33a32.43,32.43,0,0,0-32.39,32.39v2.57a32.44,32.44,0,0,0,32.39,32.4h508.91a32.44,32.44,0,0,0,32.4-32.4v-2.57A32.44,32.44,0,0,0,1284.24,855Z" transform="translate(-124.39 -121.54)"/><path class="cls-5" d="M1297.65,887.35a13.41,13.41,0,0,0-13.41-13.41H775.33a13.41,13.41,0,0,0-13.41,13.41v1.29h535.73Z" transform="translate(-124.39 -121.54)"/><path class="cls-7" d="M775.33,903.33h508.91a13.41,13.41,0,0,0,13.41-13.41v-1.28H761.92v1.28A13.41,13.41,0,0,0,775.33,903.33Z" transform="translate(-124.39 -121.54)"/><path class="cls-8" d="M1190.73,904H788l63.49,483.59a66,66,0,0,0,60.12,65.89c1.86.16,3.73.26,5.63.26H1144c1.9,0,3.78-.1,5.64-.26a65.39,65.39,0,0,0,41.91-20.23c-2.68.22-5.44.51-8.31.91-63.38,9-135.72.1-183.87-8.59a69.08,69.08,0,0,1-56.76-64.85c-3.56-78.28-9.76-224.31-10.51-308a96.63,96.63,0,0,1,88.6-97.15l248.5-20.74h0l4-30.82Z" transform="translate(-124.39 -121.54)"/><ellipse class="cls-2" cx="902.87" cy="1030.74" rx="115.16" ry="71.23"/><ellipse class="cls-3" cx="902.87" cy="1030.74" rx="96.18" ry="52.25"/><path class="cls-9" d="M1027.27,1100c-37.73,0-70.36,11.8-86.12,29,17.08-14.53,47-24.17,81.09-24.17,53.12,0,96.18,23.39,96.18,52.25,0,8.36-3.63,16.26-10.06,23.26,9.54-8.11,15.09-17.74,15.09-28.07C1123.45,1123.42,1080.39,1100,1027.27,1100Z" transform="translate(-124.39 -121.54)"/></g></g><g id="_3d_glasses" data-name="3d glasses"><path class="cls-2" d="M497.37,390.49A43.32,43.32,0,0,1,461.91,372c-2.76-3.93-6.12-9-10.38-15.53l-.43-.66c-1.76-2.69-3.69-5.62-5.81-8.82-8.48-12.83-17.81-13.9-20.11-13.95a11.67,11.67,0,0,1-1.35.08c-.44,0-.83,0-1.21-.06-2.46.05-12.6,1-20.1,13.34-6.57,10.79-11.85,18.28-15.7,23.76l-1.3,1.85a43.33,43.33,0,0,1-35.45,18.45H242.66a43.33,43.33,0,0,1-43.28-43.28v-86a43.32,43.32,0,0,1,43.28-43.28H604.78a43.33,43.33,0,0,1,43.28,43.28v86a43.34,43.34,0,0,1-43.28,43.28Z" transform="translate(-124.39 -121.54)"/><path class="cls-10" d="M604.77,236.76H242.66a24.39,24.39,0,0,0-24.4,24.4v86a24.4,24.4,0,0,0,24.4,24.4H350.07a24.39,24.39,0,0,0,20-10.41c3.74-5.34,9.3-13,16.33-24.59,14.58-23.94,37.3-22.38,37.3-22.38s21.17-2.1,37.35,22.38c7.46,11.28,12.59,19.25,16.33,24.59a24.41,24.41,0,0,0,20,10.41h107.4a24.4,24.4,0,0,0,24.4-24.4v-86A24.39,24.39,0,0,0,604.77,236.76Z" transform="translate(-124.39 -121.54)"/><path class="cls-11" d="M487.25,355.36c-4-5.34-9.49-13.31-17.46-24.59-17.29-24.48-39.93-22.38-39.93-22.38s-24.28-1.56-39.86,22.38c-7.52,11.55-13.46,19.25-17.46,24.59a26.67,26.67,0,0,1-21.37,10.41H236.37a27.37,27.37,0,0,1-12.47-3,24.32,24.32,0,0,0,18.76,8.81H350.07a24.39,24.39,0,0,0,20-10.41c3.74-5.34,9.3-13,16.33-24.59,14.58-23.94,37.3-22.38,37.3-22.38s21.17-2.1,37.35,22.38c7.46,11.28,12.59,19.25,16.33,24.59a24.41,24.41,0,0,0,20,10.41h107.4a24.32,24.32,0,0,0,15.82-5.84h-112A26.66,26.66,0,0,1,487.25,355.36Z" transform="translate(-124.39 -121.54)"/><path class="cls-5" d="M604.77,236.76H242.66a24.39,24.39,0,0,0-24.4,24.4v6.16a24.39,24.39,0,0,1,24.4-24.39H604.77a24.39,24.39,0,0,1,24.4,24.39v-6.16A24.39,24.39,0,0,0,604.77,236.76Z" transform="translate(-124.39 -121.54)"/><path class="cls-2" d="M503.47,347.34a21.14,21.14,0,0,1-17.94-10.07l-18-29.48a11.86,11.86,0,0,1-1.74-6.19V278a21,21,0,0,1,21-21H587.34a21,21,0,0,1,21,21v48.31a21,21,0,0,1-21,21Z" transform="translate(-124.39 -121.54)"/><path class="cls-2" d="M260.1,347.34a21,21,0,0,1-21-21V278a21,21,0,0,1,21-21H360.62a21,21,0,0,1,21,21V301.6a11.86,11.86,0,0,1-1.74,6.19l-18,29.48A21.14,21.14,0,0,1,344,347.34Z" transform="translate(-124.39 -121.54)"/><path class="cls-6" d="M552.57,268.89l-58.9,58.9,2,3.29a9.13,9.13,0,0,0,7.8,4.38h.39l66.56-66.57Z" transform="translate(-124.39 -121.54)"/><path class="cls-6" d="M486.81,268.89a9.13,9.13,0,0,0-9.13,9.13V301.6l8.61,14.1,46.8-46.81Z" transform="translate(-124.39 -121.54)"/><path class="cls-6" d="M587.34,335.46a9.13,9.13,0,0,0,9.13-9.13V281.8l-53.66,53.66Z" transform="translate(-124.39 -121.54)"/><path class="cls-12" d="M305.17,335.46H344a9.13,9.13,0,0,0,7.79-4.38l18-29.48V278a9,9,0,0,0-1.78-5.36Z" transform="translate(-124.39 -121.54)"/><path class="cls-12" d="M314.93,268.89l-62.45,62.46a9.11,9.11,0,0,0,7.61,4.11h6.13l66.56-66.57Z" transform="translate(-124.39 -121.54)"/><path class="cls-12" d="M260.09,268.89A9.12,9.12,0,0,0,251,278v35.36l44.48-44.49Z" transform="translate(-124.39 -121.54)"/><path class="cls-13" d="M360.62,268.89H332.78l-66.56,66.57h38.95l62.8-62.8A9.09,9.09,0,0,0,360.62,268.89Z" transform="translate(-124.39 -121.54)"/><path class="cls-13" d="M295.45,268.89,251,313.38v12.95a9.13,9.13,0,0,0,1.51,5l62.45-62.46Z" transform="translate(-124.39 -121.54)"/><path class="cls-14" d="M587.34,268.89H570.42l-66.56,66.57h38.95l53.66-53.66V278A9.13,9.13,0,0,0,587.34,268.89Z" transform="translate(-124.39 -121.54)"/><polygon class="cls-14" points="408.7 147.35 361.89 194.16 369.27 206.25 428.17 147.35 408.7 147.35"/></g><g id="drink"><path class="cls-2" d="M1678.06,566a18.88,18.88,0,0,1-18.78-16.79L1632.1,308.28c-9.59-3.77-16.1-13.65-16.1-25.36,0-15.14,10.87-27,24.74-27h54.56V216.13a9.93,9.93,0,0,0-4.17-8.1L1687.7,206a7,7,0,0,1-1.74-1.49l-43.42-29.9a7,7,0,0,1-1.8-9.74l19.29-28a7,7,0,0,1,9.74-1.79l48.45,33.37a58,58,0,0,1,25.09,47.75v39.78h108.62c13.87,0,24.73,11.87,24.73,27,0,11.71-6.51,21.59-16.1,25.36l-27.17,240.88A18.9,18.9,0,0,1,1814.6,566Z" transform="translate(-124.39 -121.54)"/><path class="cls-2" d="M1702.3,370.05V216.13a17,17,0,0,0-7.34-14l-48.46-33.37,19.3-28,48.45,33.37a51,51,0,0,1,22.06,42V370.05Z" transform="translate(-124.39 -121.54)"/><path class="cls-5" d="M1727.81,361.54h-17V216.13a25.49,25.49,0,0,0-11-21l-41.45-28.54,9.65-14,41.45,28.55a42.45,42.45,0,0,1,18.38,35Z" transform="translate(-124.39 -121.54)"/><path class="cls-2" d="M1678.06,559a11.91,11.91,0,0,1-11.83-10.57l-28.88-256a11.91,11.91,0,0,1,11.83-13.24h194.3a11.93,11.93,0,0,1,11.84,13.24l-28.89,256A11.91,11.91,0,0,1,1814.6,559Z" transform="translate(-124.39 -121.54)"/><polygon class="cls-12" points="1621.94 169.49 1524.79 169.49 1553.67 425.5 1621.94 425.5 1690.21 425.5 1719.09 169.49 1621.94 169.49"/><polygon class="cls-2" points="1585.4 80.73 1601.85 70.04 1597.22 62.91 1579.14 74.66 1590.24 56.31 1582.96 51.91 1566.93 78.42 1574.2 82.82 1575.77 80.23 1578.86 84.98 1580.28 84.06 1580.28 89.23 1606.43 89.23 1606.43 80.73 1585.4 80.73"/><polygon class="cls-5" points="1534.4 254.75 1538 286.65 1705.87 286.65 1709.47 254.75 1534.4 254.75"/><polygon class="cls-5" points="1539.62 301.39 1540.64 310.58 1703.23 310.58 1704.26 301.39 1539.62 301.39"/><path class="cls-15" d="M1843.48,291h-.32c0,.78,0,1.54.07,2.27Z" transform="translate(-124.39 -121.54)"/><path class="cls-5" d="M1843.48,302.93s-.08-3.95-.25-9.63l-1.1,9.71Z" transform="translate(-124.39 -121.54)"/><path class="cls-16" d="M1699.34,314.43,1842.13,303l1.1-9.71c0-.73,0-1.49-.07-2.27h-194l28.88,256H1814.6l-95.14-12.44a22.16,22.16,0,0,1-19.15-19.34l-21.22-176.07A22.17,22.17,0,0,1,1699.34,314.43Z" transform="translate(-124.39 -121.54)"/><path class="cls-2" d="M1640.74,302.93c-10,0-17.74-8.79-17.74-20s7.79-20,17.74-20h211.19c9.94,0,17.73,8.79,17.73,20s-7.79,20-17.73,20Z" transform="translate(-124.39 -121.54)"/><path class="cls-5" d="M1851.93,274.82H1640.74c-3,0-5.42,3.63-5.42,8.1h0c0,4.48,2.43,8.11,5.42,8.11h211.19c3,0,5.41-3.63,5.41-8.11h0C1857.34,278.45,1854.92,274.82,1851.93,274.82Z" transform="translate(-124.39 -121.54)"/></g><g id="clapper_board" data-name="clapper board"><path class="cls-2" d="M173.61,1256a14,14,0,0,1-14-14V1029a13.82,13.82,0,0,1,.18-2.21L159.61,979a17.12,17.12,0,0,1,.16-2.36l-8-47.22a17.25,17.25,0,0,1,14.06-19.83l369.9-63.73a17.83,17.83,0,0,1,2.93-.25,17.22,17.22,0,0,1,17,14.3l9.05,52.51a17.24,17.24,0,0,1-14.05,19.89L380,961.76H552.38A17.23,17.23,0,0,1,569.6,979v263a14,14,0,0,1-14,14Z" transform="translate(-124.39 -121.54)"/><rect class="cls-17" x="52.44" y="910.73" width="375.55" height="206.48"/><g class="cls-18"><path class="cls-19" d="M176.83,1032.26v206.49H552.38s-211.38-12-271.67-26.86c-48.88-12-60.53-114-60.53-114-4.48-24.74,14.33-45.41,39.31-48.25,74.61-8.47,292.89-7.16,292.89-7.16v-10.22Z" transform="translate(-124.39 -121.54)"/></g><path class="cls-5" d="M217.29,1144.05v-12h77.42v-41.54H217.29v-12H516.57v12H438.64V1132h77.93v12Zm89.45-12H426.61v-41.54H306.74Z" transform="translate(-124.39 -121.54)"/><rect class="cls-5" x="92.9" y="1064.05" width="299.28" height="12.03"/><path class="cls-2" d="M177.65,989.36a10.22,10.22,0,0,1-10.08-8.52l-8.85-52.55a10.23,10.23,0,0,1,8.35-11.77L537,852.8a10.22,10.22,0,0,1,11.81,8.34l9,52.51a10.22,10.22,0,0,1-8.33,11.81L179.38,989.22A11.11,11.11,0,0,1,177.65,989.36Z" transform="translate(-124.39 -121.54)"/><path class="cls-2" d="M177,1042.48a10.22,10.22,0,0,1-10.22-10.18l-.2-53.28a10.23,10.23,0,0,1,10.22-10.26H552.38A10.21,10.21,0,0,1,562.6,979v53.28a10.21,10.21,0,0,1-10.22,10.22Z" transform="translate(-124.39 -121.54)"/><polygon class="cls-2" points="427.99 910.73 427.99 857.92 376.93 910.73 427.99 910.73"/><polygon class="cls-2" points="189.17 857.44 137.64 910.73 200.24 910.73 251.76 857.44 189.17 857.44"/><polygon class="cls-2" points="52.44 857.44 52.64 910.73 78.92 910.73 130.44 857.44 52.44 857.44"/><polygon class="cls-2" points="310.49 857.44 258.97 910.73 318.2 910.73 369.73 857.44 310.49 857.44"/><polygon class="cls-5" points="369.73 857.44 318.2 910.73 376.93 910.73 427.99 857.92 427.99 857.44 369.73 857.44"/><polygon class="cls-5" points="251.76 857.44 200.24 910.73 258.97 910.73 310.49 857.44 251.76 857.44"/><polygon class="cls-5" points="130.44 857.44 78.92 910.73 137.64 910.73 189.17 857.44 130.44 857.44"/><polygon class="cls-2" points="414.31 741.33 423.28 793.37 363.99 750 414.31 741.33"/><polygon class="cls-2" points="188 834.39 128.18 790.63 189.87 780 249.69 823.76 188 834.39"/><polygon class="cls-2" points="53.26 857.61 44.41 805.06 70.3 800.6 130.13 844.36 53.26 857.61"/><polygon class="cls-2" points="307.56 813.79 247.74 770.03 306.12 759.97 365.94 803.74 307.56 813.79"/><polygon class="cls-5" points="365.94 803.74 306.12 759.97 363.99 750 423.28 793.37 423.36 793.85 365.94 803.74"/><polygon class="cls-5" points="249.69 823.76 189.87 780 247.74 770.03 307.56 813.79 249.69 823.76"/><polygon class="cls-5" points="130.13 844.36 70.3 800.6 128.18 790.63 188 834.39 130.13 844.36"/><g class="cls-20"><path class="cls-5" d="M204.8,926.31a2.92,2.92,0,0,1-.49-5.8l335.36-58.07a2.92,2.92,0,0,1,1,5.76S205,926.31,204.8,926.31Z" transform="translate(-124.39 -121.54)"/></g><g class="cls-21"><path class="cls-5" d="M552.38,985.3h0L256,985a2.92,2.92,0,1,1,0-5.84l296.41.32a2.92,2.92,0,0,1,0,5.84Z" transform="translate(-124.39 -121.54)"/></g></g><g id="role_film" data-name="role film"><path class="cls-2" d="M1268.54,407.91H1147.29a158.19,158.19,0,0,0,42.19-43.73,156.6,156.6,0,0,0,25.17-85.28c0-86.77-70.59-157.36-157.36-157.36S899.93,192.13,899.93,278.9a157.55,157.55,0,0,0,152.4,157.27h.13c1.79.06,3.37.08,4.83.08s3,0,4.81-.08h206.44a7,7,0,0,0,7-7V414.91A7,7,0,0,0,1268.54,407.91ZM1057,409.15A132.19,132.19,0,1,1,1189.22,277,132.18,132.18,0,0,1,1057,409.15Z" transform="translate(-124.39 -121.54)"/><rect class="cls-2" x="928.15" y="293.37" width="216" height="14.26"/><circle class="cls-2" cx="932.9" cy="157.36" r="87.16"/><path class="cls-2" d="M1057.29,425.76c-81,0-146.86-65.88-146.86-146.86S976.31,132,1057.29,132s146.86,65.89,146.86,146.87S1138.27,425.76,1057.29,425.76Zm51.14-98.3a21.69,21.69,0,0,0-4.91,42.82,21.34,21.34,0,0,0,5,.58,21.69,21.69,0,0,0,4.9-42.82A21.87,21.87,0,0,0,1108.43,327.46ZM1006,327.34c-.61,0-1.23,0-1.85.08a21.69,21.69,0,0,0-19.8,23.43,21.81,21.81,0,0,0,21.58,19.87c.62,0,1.24,0,1.86-.08a21.69,21.69,0,0,0-1.79-43.3Zm69.64-23.45a.38.38,0,0,0-.39.31.42.42,0,0,0,.31.49h0c.33,0,.42-.16.45-.3a.42.42,0,0,0-.3-.49Zm-36.72-.05a.42.42,0,0,0-.37.44.47.47,0,0,0,.39.37.43.43,0,0,0,.42-.44.48.48,0,0,0-.39-.37Zm18.4-35a9.77,9.77,0,1,0,3.56.68A9.7,9.7,0,0,0,1057.3,268.83ZM1140.22,230a21.72,21.72,0,1,0,11.18,3.13A21.55,21.55,0,0,0,1140.22,230Zm-165.77-.22a21.7,21.7,0,1,0,20,13.3A21.54,21.54,0,0,0,974.45,229.78ZM1087,269a.36.36,0,0,0-.36.2.42.42,0,0,0,.14.55.36.36,0,0,0,.2.06.36.36,0,0,0,.36-.2.42.42,0,0,0-.14-.55A.39.39,0,0,0,1087,269Zm-59.34-.08a.3.3,0,0,0-.16,0,.32.32,0,0,0-.21.21.34.34,0,0,0,0,.31.39.39,0,0,0,.38.26c.26-.09.32-.14.37-.26a.37.37,0,0,0,0-.31A.38.38,0,0,0,1027.66,268.92Zm29.64-21.49a.37.37,0,0,0-.26.1.42.42,0,0,0,0,.57.41.41,0,0,0,.31.14.37.37,0,0,0,.26-.1.42.42,0,0,0,0-.57A.41.41,0,0,0,1057.3,247.43Zm0-77.68a21.69,21.69,0,1,0,16.41,7.48A21.66,21.66,0,0,0,1057.25,169.75Z" transform="translate(-124.39 -121.54)"/><path class="cls-2" d="M1057.29,128.54c-82.91,0-150.36,67.45-150.36,150.36s67.45,150.35,150.36,150.35,150.36-67.45,150.36-150.35S1140.2,128.54,1057.29,128.54Zm.38,276.61A126.83,126.83,0,1,1,1184.5,278.32,126.83,126.83,0,0,1,1057.67,405.15Z" transform="translate(-124.39 -121.54)"/><path class="cls-22" d="M1057.29,140.77c-76.16,0-138.12,62-138.12,138.13S981.13,417,1057.29,417s138.12-62,138.12-138.12S1133.45,140.77,1057.29,140.77Zm37.53,133.36a9.14,9.14,0,1,1-3.11-12.56A9.08,9.08,0,0,1,1094.82,274.13Zm-57.49-105.68a30.43,30.43,0,1,1-3.06,42.93A30.43,30.43,0,0,1,1037.33,168.45Zm26,86.3a9.15,9.15,0,1,1,.91-12.9A9.16,9.16,0,0,1,1063.3,254.75Zm-44.1,11.12a9.15,9.15,0,1,1,0,7A9.05,9.05,0,0,1,1019.2,265.87Zm-72.8-2.6a30.43,30.43,0,1,1,39.84,16.27A30.43,30.43,0,0,1,946.4,263.27Zm62.1,116.08a30.43,30.43,0,1,1,27.77-32.88A30.43,30.43,0,0,1,1008.5,379.35Zm31.2-66-.78,0a9.14,9.14,0,0,1-.75-18.25,6.79,6.79,0,0,1,.78,0,9.15,9.15,0,0,1,.75,18.26Zm10.83-17.54a18.5,18.5,0,1,1,24-10.46A18.5,18.5,0,0,1,1050.53,295.82Zm23,17.38a9.14,9.14,0,0,1,2.07-18.05,9.14,9.14,0,0,1,8.91,11.23,9.14,9.14,0,0,1-11,6.82Zm64.53,42.88a30.43,30.43,0,1,1-22.71-36.55A30.43,30.43,0,0,1,1138.08,356.08Zm-13.61-78.33a30.43,30.43,0,1,1,41.78-10.33A30.43,30.43,0,0,1,1124.47,277.75Z" transform="translate(-124.39 -121.54)"/><path class="cls-23" d="M971.34,182c35.55-31.88,84.75-41.15,126.77-35.1a137.67,137.67,0,0,0-40.82-6.17c-76.16,0-138.12,62-138.12,138.13a137.61,137.61,0,0,0,4.66,35.54C918.8,268.88,932.83,216.58,971.34,182Z" transform="translate(-124.39 -121.54)"/><g class="cls-24"><path d="M1057.39,417c76.16,0,138.12-62,138.12-138.12a137.73,137.73,0,0,0-44.07-101c.31.83,7.68,21.23,8.16,50.34a30.38,30.38,0,0,1-6.93,51.27,158.93,158.93,0,0,1-23.42,47.4,30.41,30.41,0,1,1-44.34,41.4c-64.55,37.05-135-4.14-137-5.28A137.92,137.92,0,0,0,1057.39,417Z" transform="translate(-124.39 -121.54)"/></g></g><g id="ticket"><path class="cls-2" d="M569.75,1933.07a13.3,13.3,0,0,1-13.28-13.28v-3.94c0-10.43-10.92-20.21-22.92-20.52h-.28l-5.09-.33a13.3,13.3,0,0,1-12.41-13.29l0-12.1v-13.26a8.49,8.49,0,0,1,.37-2.47,8.37,8.37,0,0,1-.37-2.46v-12.47a8.36,8.36,0,0,0,0-4.92v-12.48a8.47,8.47,0,0,1,.37-2.46,8.37,8.37,0,0,1-.37-2.46v-13.29l0-12.65a13.26,13.26,0,0,1,2.94-8.34l-1.61-3.77-5-11.63a13.22,13.22,0,0,1,6.59-17.25l4.24-2c10.93-4.78,17.42-18.38,13.35-28l-1.55-3.63a13.28,13.28,0,0,1,7-17.41l228.69-97.15a13.27,13.27,0,0,1,17.41,7l1.54,3.63c2.89,6.8,11.27,11.55,20.38,11.55a23.57,23.57,0,0,0,9-1.74l4.35-1.67a13.25,13.25,0,0,1,17,7.22l4.93,11.67,5.2,12.22a8.56,8.56,0,0,1,.62,2.41,8.33,8.33,0,0,1,1.3,2.12l4.88,11.49a8.16,8.16,0,0,1,.62,2.41A8.33,8.33,0,0,1,859,1672l4.88,11.48a8.16,8.16,0,0,1,.62,2.41,8.33,8.33,0,0,1,1.3,2.12l5.2,12.23,4.75,11.11a13.29,13.29,0,0,1-6.23,17.07l-4.55,2.3-.26.12c-10.92,5-17.15,18.24-13.07,27.84l1.54,3.63a13.3,13.3,0,0,1-2.7,14.45,24,24,0,0,0,4.21.44l4.66.16a13.22,13.22,0,0,1,12.81,13.29l0,12.67v13.28a8.05,8.05,0,0,1-.37,2.46,8.15,8.15,0,0,1,.37,2.46V1834a8.36,8.36,0,0,0,0,4.92v12.47a8.05,8.05,0,0,1-.37,2.46,8.15,8.15,0,0,1,.37,2.46v13.29l0,12.09A13.3,13.3,0,0,1,859.78,1895l-5.09.33h-.28c-12,.31-22.92,10.09-22.92,20.52v3.94a13.29,13.29,0,0,1-13.27,13.28Z" transform="translate(-124.39 -121.54)"/><path class="cls-25" d="M851.84,1710.19a8.69,8.69,0,0,1,1-8.59l-.93-2.2a8.68,8.68,0,0,1-5.87-13.82l-.93-2.19a8.68,8.68,0,0,1-5.87-13.82l-.93-2.19a8.68,8.68,0,0,1-5.87-13.82l-.94-2.19a8.69,8.69,0,0,1-6.15-13.42c-19.1,7.87-43.71.06-51.81-19L552.15,1713c8.1,19.06-3.36,42.19-22.28,50.48a8.69,8.69,0,0,1,5.37,13.74l.94,2.2a8.68,8.68,0,0,1,5.87,13.81l.93,2.2a8.68,8.68,0,0,1,5.87,13.82l.93,2.19a8.68,8.68,0,0,1,5.87,13.82l.93,2.19a8.68,8.68,0,0,1,6.5,12.84c19-7.51,43.27.31,51.3,19.2l221.43-94.06c-8-18.9,3.22-41.8,21.79-50.25A8.68,8.68,0,0,1,851.84,1710.19Z" transform="translate(-124.39 -121.54)"/><path class="cls-2" d="M620.37,1846.59l-3.36-4.12a44.07,44.07,0,0,0-39-15.75l-5.28.63-26.34-62,4.11-3.36a44,44,0,0,0,15.75-39l-.62-5.27,202-85.81L771,1636a44.09,44.09,0,0,0,39,15.75l5.27-.63,26.35,62-4.12,3.36a44.07,44.07,0,0,0-15.75,39l.63,5.27Z" transform="translate(-124.39 -121.54)"/><path class="cls-26" d="M622.49,1838a51,51,0,0,0-45.34-18.3L555,1767.44a50.93,50.93,0,0,0,18.31-45.34l192.21-81.65a51,51,0,0,0,45.34,18.3L833,1711a51,51,0,0,0-18.3,45.34Z" transform="translate(-124.39 -121.54)"/><path class="cls-5" d="M648.76,1793.23l-9.69-22.8-8.14,3.46-2-4.65,21.82-9.26,2,4.64-8.13,3.45,9.69,22.81Z" transform="translate(-124.39 -121.54)"/><path class="cls-5" d="M665.84,1786l-11.66-27.45,5.54-2.36,11.66,27.45Z" transform="translate(-124.39 -121.54)"/><path class="cls-5" d="M689.93,1763.83l6.1-.58a13.15,13.15,0,0,1-1.27,8.42,14,14,0,0,1-16.94,5.36q-5.12-2.23-7.86-8.72c-1.94-4.57-2.27-8.61-1-12.15a13.2,13.2,0,0,1,7.7-7.74,12.41,12.41,0,0,1,9.45-.5,11.81,11.81,0,0,1,5,3.86l-4.93,3.65a6.15,6.15,0,0,0-7.74-2.15,6.78,6.78,0,0,0-4,4.29c-.65,2-.28,4.63,1.11,7.91,1.48,3.47,3.15,5.67,5,6.61a6.59,6.59,0,0,0,5.8.15,6.12,6.12,0,0,0,3.21-3A8.84,8.84,0,0,0,689.93,1763.83Z" transform="translate(-124.39 -121.54)"/><path class="cls-5" d="M704.43,1769.59l-11.66-27.45,5.54-2.36,5.17,12.19,6-16.94,7.46-3.17-5.8,15.08,18,12.13-7.17,3-13-9.68-2.55,6.5,3.53,8.29Z" transform="translate(-124.39 -121.54)"/><path class="cls-5" d="M732,1757.85l-11.66-27.45,20.36-8.64,2,4.64-14.81,6.29,2.58,6.09,13.78-5.86,2,4.63-13.78,5.85,3.17,7.47,15.34-6.51,2,4.62Z" transform="translate(-124.39 -121.54)"/><path class="cls-5" d="M763.8,1744.36l-9.69-22.8L746,1725l-2-4.65,21.82-9.26,2,4.64-8.13,3.45,9.69,22.81Z" transform="translate(-124.39 -121.54)"/><path class="cls-25" d="M774.35,1691.25a2.12,2.12,0,0,1-2.78-1.12L767.7,1681a2.12,2.12,0,1,1,3.9-1.66l3.87,9.12A2.11,2.11,0,0,1,774.35,1691.25ZM766.61,1673a2.13,2.13,0,0,1-2.79-1.13l-3.87-9.11a2.12,2.12,0,0,1,3.91-1.66l3.87,9.12A2.12,2.12,0,0,1,766.61,1673Z" transform="translate(-124.39 -121.54)"/><path class="cls-25" d="M797.59,1746a2.14,2.14,0,0,1-2.79-1.13l-3.87-9.11a2.12,2.12,0,1,1,3.91-1.66l3.87,9.11A2.13,2.13,0,0,1,797.59,1746Zm-7.75-18.24a2.11,2.11,0,0,1-2.78-1.12l-3.87-9.12a2.12,2.12,0,1,1,3.9-1.66l3.87,9.12A2.11,2.11,0,0,1,789.84,1727.71Zm-7.74-18.23a2.13,2.13,0,0,1-2.79-1.12l-3.87-9.12a2.12,2.12,0,0,1,3.91-1.66l3.87,9.12A2.11,2.11,0,0,1,782.1,1709.48Z" transform="translate(-124.39 -121.54)"/><path class="cls-25" d="M604.9,1763.23a2.11,2.11,0,0,1-2.78-1.12l-3.87-9.12a2.12,2.12,0,1,1,3.9-1.66l3.87,9.12A2.11,2.11,0,0,1,604.9,1763.23ZM597.16,1745a2.13,2.13,0,0,1-2.79-1.13l-3.87-9.11a2.12,2.12,0,0,1,3.91-1.66l3.87,9.12A2.12,2.12,0,0,1,597.16,1745Z" transform="translate(-124.39 -121.54)"/><path class="cls-25" d="M628.14,1817.93a2.14,2.14,0,0,1-2.79-1.13l-3.87-9.11a2.12,2.12,0,1,1,3.91-1.66l3.87,9.11A2.13,2.13,0,0,1,628.14,1817.93Zm-7.75-18.24a2.11,2.11,0,0,1-2.78-1.12l-3.87-9.12a2.12,2.12,0,1,1,3.9-1.65l3.87,9.11A2.11,2.11,0,0,1,620.39,1799.69Zm-7.74-18.23a2.13,2.13,0,0,1-2.79-1.12l-3.87-9.12a2.12,2.12,0,0,1,3.91-1.66l3.87,9.12A2.11,2.11,0,0,1,612.65,1781.46Z" transform="translate(-124.39 -121.54)"/><path class="cls-25" d="M758.86,1654.79A2.13,2.13,0,0,0,760,1652l-3.31-7.81-3.91,1.66,3.32,7.81A2.13,2.13,0,0,0,758.86,1654.79Z" transform="translate(-124.39 -121.54)"/><path class="cls-25" d="M799.8,1751.16a2.11,2.11,0,0,0-1.12,2.78l3.31,7.81,3.91-1.66-3.32-7.81A2.11,2.11,0,0,0,799.8,1751.16Z" transform="translate(-124.39 -121.54)"/><path class="cls-25" d="M589.41,1726.77a2.14,2.14,0,0,0,1.13-2.79l-3.32-7.81-3.91,1.66,3.32,7.81A2.13,2.13,0,0,0,589.41,1726.77Z" transform="translate(-124.39 -121.54)"/><path class="cls-25" d="M630.35,1823.14a2.11,2.11,0,0,0-1.12,2.78l3.31,7.81,3.91-1.66-3.32-7.81A2.11,2.11,0,0,0,630.35,1823.14Z" transform="translate(-124.39 -121.54)"/><polygon class="cls-5" points="549.87 1566.52 559.53 1574.84 571.86 1571.59 566.93 1583.35 573.83 1594.06 561.13 1593.02 553.07 1602.88 550.14 1590.48 538.26 1585.86 549.15 1579.24 549.87 1566.52"/><polygon class="cls-5" points="592.42 1553.24 602.08 1561.55 614.41 1558.31 609.49 1570.06 616.38 1580.78 603.68 1579.73 595.62 1589.6 592.69 1577.2 580.81 1572.58 591.7 1565.96 592.42 1553.24"/><polygon class="cls-5" points="511.88 1587.45 521.54 1595.77 533.86 1592.52 528.94 1604.28 535.83 1614.99 523.13 1613.95 515.07 1623.81 512.14 1611.41 500.27 1606.79 511.16 1600.18 511.88 1587.45"/><rect class="cls-27" x="644.2" y="1775.35" width="139.34" height="7.3" transform="translate(-763.12 299.18) rotate(-23.02)"/><rect class="cls-27" x="680.51" y="1786.76" width="76.42" height="7.3" transform="translate(-767.19 301.98) rotate(-23.02)"/><path class="cls-28" d="M835.81,1765.44l-5.14,2.18C834,1766.25,835.81,1765.44,835.81,1765.44Z" transform="translate(-124.39 -121.54)"/><path class="cls-29" d="M529.87,1763.49a8.69,8.69,0,0,1,5.37,13.74l.94,2.2a8.68,8.68,0,0,1,5.87,13.81l.93,2.2a8.68,8.68,0,0,1,5.87,13.82l.93,2.19a8.68,8.68,0,0,1,5.87,13.82l.93,2.19a8.68,8.68,0,0,1,6.5,12.84c19-7.51,43.27.31,51.3,19.2l216.29-91.88c-23.91,9.84-126.66,48.53-206.74,22.89-91.23-29.22-8.88-104.21-8.88-104.21L552.15,1713C560.25,1732.07,548.79,1755.2,529.87,1763.49Z" transform="translate(-124.39 -121.54)"/><path class="cls-25" d="M850.63,1871.27a8.69,8.69,0,0,1,4.31-7.51v-2.38a8.69,8.69,0,0,1,0-15V1844a8.69,8.69,0,0,1,0-15v-2.38a8.69,8.69,0,0,1,0-15v-2.39a8.69,8.69,0,0,1-.42-14.75c-20.65-.23-40.25-17-40.25-37.74H573.69c0,20.7-19.59,37.51-40.25,37.74a8.68,8.68,0,0,1-.42,14.75v2.39a8.68,8.68,0,0,1,0,15V1829a8.68,8.68,0,0,1,0,15v2.39a8.68,8.68,0,0,1,0,15v2.38a8.68,8.68,0,0,1,1,14.36c20.4.52,39.7,17.2,39.7,37.73H814.27c0-20.53,19.31-37.21,39.71-37.73A8.65,8.65,0,0,1,850.63,1871.27Z" transform="translate(-124.39 -121.54)"/><path class="cls-2" d="M584.25,1906.31l-1.48-5.1A44.09,44.09,0,0,0,553,1871.45l-5.1-1.48v-67.39l5.1-1.49a44.06,44.06,0,0,0,29.76-29.75l1.48-5.1H803.71l1.48,5.1A44.06,44.06,0,0,0,835,1801.09l5.1,1.49V1870l-5.1,1.48a44.09,44.09,0,0,0-29.76,29.76l-1.48,5.1Z" transform="translate(-124.39 -121.54)"/><path class="cls-26" d="M589.56,1899.24A50.94,50.94,0,0,0,555,1864.66v-56.77a51,51,0,0,0,34.57-34.58H798.4A51,51,0,0,0,833,1807.89v56.77a50.94,50.94,0,0,0-34.58,34.58Z" transform="translate(-124.39 -121.54)"/><path class="cls-5" d="M631.24,1868.3v-24.78h-8.85v-5h23.7v5h-8.83v24.78Z" transform="translate(-124.39 -121.54)"/><path class="cls-5" d="M649.8,1868.3v-29.82h6v29.82Z" transform="translate(-124.39 -121.54)"/><path class="cls-5" d="M680.64,1857.33l5.84,1.86a13.15,13.15,0,0,1-4.47,7.25,14.05,14.05,0,0,1-17.69-1.69q-3.83-4.07-3.82-11.1,0-7.44,3.84-11.56a13.18,13.18,0,0,1,10.11-4.12,12.43,12.43,0,0,1,8.89,3.23,11.71,11.71,0,0,1,3,5.49l-6,1.43a6.16,6.16,0,0,0-6.28-5,6.8,6.8,0,0,0-5.38,2.38q-2.07,2.38-2.07,7.71c0,3.78.68,6.46,2,8.06a6.59,6.59,0,0,0,5.29,2.4,6,6,0,0,0,4.12-1.52A8.82,8.82,0,0,0,680.64,1857.33Z" transform="translate(-124.39 -121.54)"/><path class="cls-5" d="M691.72,1868.3v-29.82h6v13.24l12.16-13.24H718l-11.23,11.61,11.84,18.21h-7.79l-8.2-14-4.88,5v9Z" transform="translate(-124.39 -121.54)"/><path class="cls-5" d="M721.73,1868.3v-29.82h22.11v5H727.75v6.61h15v5h-15v8.11h16.66v5Z" transform="translate(-124.39 -121.54)"/><path class="cls-5" d="M756.23,1868.3v-24.78h-8.85v-5h23.7v5h-8.83v24.78Z" transform="translate(-124.39 -121.54)"/><path class="cls-25" d="M786.71,1823.54a2.12,2.12,0,0,1-2.12-2.12v-9.91a2.12,2.12,0,0,1,4.24,0v9.91A2.12,2.12,0,0,1,786.71,1823.54Zm0-19.81a2.12,2.12,0,0,1-2.12-2.12v-9.91a2.12,2.12,0,1,1,4.24,0v9.91A2.12,2.12,0,0,1,786.71,1803.73Z" transform="translate(-124.39 -121.54)"/><path class="cls-25" d="M786.71,1883a2.11,2.11,0,0,1-2.12-2.12v-9.9a2.12,2.12,0,0,1,4.24,0v9.9A2.11,2.11,0,0,1,786.71,1883Zm0-19.8a2.12,2.12,0,0,1-2.12-2.13v-9.9a2.12,2.12,0,0,1,4.24,0v9.9A2.12,2.12,0,0,1,786.71,1863.16Zm0-19.81a2.12,2.12,0,0,1-2.12-2.12v-9.91a2.12,2.12,0,0,1,4.24,0v9.91A2.12,2.12,0,0,1,786.71,1843.35Z" transform="translate(-124.39 -121.54)"/><path class="cls-25" d="M602.61,1823.54a2.12,2.12,0,0,1-2.12-2.12v-9.91a2.12,2.12,0,0,1,4.24,0v9.91A2.12,2.12,0,0,1,602.61,1823.54Zm0-19.81a2.12,2.12,0,0,1-2.12-2.12v-9.91a2.12,2.12,0,1,1,4.24,0v9.91A2.12,2.12,0,0,1,602.61,1803.73Z" transform="translate(-124.39 -121.54)"/><path class="cls-25" d="M602.61,1883a2.11,2.11,0,0,1-2.12-2.12v-9.9a2.12,2.12,0,0,1,4.24,0v9.9A2.11,2.11,0,0,1,602.61,1883Zm0-19.8a2.12,2.12,0,0,1-2.12-2.13v-9.9a2.12,2.12,0,0,1,4.24,0v9.9A2.12,2.12,0,0,1,602.61,1863.16Zm0-19.81a2.12,2.12,0,0,1-2.12-2.12v-9.91a2.12,2.12,0,0,1,4.24,0v9.91A2.12,2.12,0,0,1,602.61,1843.35Z" transform="translate(-124.39 -121.54)"/><path class="cls-25" d="M786.71,1783.92a2.12,2.12,0,0,0,2.12-2.12v-8.49h-4.24v8.49A2.12,2.12,0,0,0,786.71,1783.92Z" transform="translate(-124.39 -121.54)"/><path class="cls-25" d="M786.71,1888.63a2.12,2.12,0,0,0-2.12,2.12v8.49h4.24v-8.49A2.12,2.12,0,0,0,786.71,1888.63Z" transform="translate(-124.39 -121.54)"/><path class="cls-25" d="M602.61,1783.92a2.12,2.12,0,0,0,2.12-2.12v-8.49h-4.24v8.49A2.12,2.12,0,0,0,602.61,1783.92Z" transform="translate(-124.39 -121.54)"/><path class="cls-25" d="M602.61,1888.63a2.12,2.12,0,0,0-2.12,2.12v8.49h4.24v-8.49A2.12,2.12,0,0,0,602.61,1888.63Z" transform="translate(-124.39 -121.54)"/><polygon class="cls-5" points="571.45 1659.93 577.09 1671.36 589.7 1673.19 580.57 1682.09 582.73 1694.65 571.45 1688.72 560.17 1694.65 562.32 1682.09 553.2 1673.19 565.81 1671.36 571.45 1659.93"/><polygon class="cls-5" points="615.8 1664.35 621.45 1675.77 634.06 1677.6 624.93 1686.5 627.09 1699.06 615.8 1693.13 604.53 1699.06 606.68 1686.5 597.55 1677.6 610.17 1675.77 615.8 1664.35"/><polygon class="cls-5" points="528.29 1664.35 533.93 1675.77 546.54 1677.6 537.42 1686.5 539.57 1699.06 528.29 1693.13 517.01 1699.06 519.17 1686.5 510.05 1677.6 522.65 1675.77 528.29 1664.35"/><rect class="cls-27" x="502.67" y="1755.47" width="139.34" height="7.3"/><rect class="cls-27" x="534.13" y="1767.87" width="76.42" height="7.3"/><path class="cls-28" d="M814.27,1915.85h-5.58C812.29,1915.89,814.27,1915.85,814.27,1915.85Z" transform="translate(-124.39 -121.54)"/><path class="cls-29" d="M533.44,1794.44a8.68,8.68,0,0,1-.42,14.75v2.39a8.68,8.68,0,0,1,0,15V1829a8.68,8.68,0,0,1,0,15v2.39a8.68,8.68,0,0,1,0,15v2.38a8.68,8.68,0,0,1,1,14.36c20.4.52,39.7,17.2,39.7,37.73h235c-25.86-.3-135.55-4.86-199.24-59.77C536.91,1793.53,642,1756.7,642,1756.7H573.69C573.69,1777.4,554.1,1794.21,533.44,1794.44Z" transform="translate(-124.39 -121.54)"/></g><g id="ticket-2" data-name="ticket"><path class="cls-2" d="M1351.15,1493.69a4.06,4.06,0,0,1-4.06-4.06v-2.55c0-9.23-9-17.55-19.25-17.8l-3.29-.22a4.06,4.06,0,0,1-3.8-4.06l0-7.83v-8.6a.92.92,0,0,1,.46-.79h0a.93.93,0,0,0,0-1.6h0a.91.91,0,0,1-.46-.79v-8.07a.94.94,0,0,1,.46-.8h0a.92.92,0,0,0,0-1.59h0a.94.94,0,0,1-.46-.8v-8.07a.92.92,0,0,1,.46-.79h0a.92.92,0,0,0,0-1.59h0a.94.94,0,0,1-.46-.8v-8.6l0-8.19a4.06,4.06,0,0,1,3.92-4.07l2.92-.1c10.2-.12,19.5-8.6,19.5-17.81v-2.55a4.06,4.06,0,0,1,4.06-4.06h160.74a4.06,4.06,0,0,1,4.06,4.06v2.55c0,9.21,9.3,17.69,19.5,17.81l2.91.1a4.05,4.05,0,0,1,3.92,4.06l0,8.2v8.6a.93.93,0,0,1-.45.8h0a.92.92,0,0,0,0,1.59h0a.91.91,0,0,1,.45.79v8.07a.92.92,0,0,1-.45.8h0a.92.92,0,0,0,0,1.59h0a.93.93,0,0,1,.45.8v8.07a.9.9,0,0,1-.45.79h0a.93.93,0,0,0,0,1.6h0a.9.9,0,0,1,.45.79v8.6l0,7.83a4.05,4.05,0,0,1-3.79,4.06l-3.3.22c-10.25.25-19.24,8.57-19.24,17.8v2.55a4.06,4.06,0,0,1-4.06,4.06Z" transform="translate(-124.39 -121.54)"/><path class="cls-30" d="M1532.86,1458.23a5.6,5.6,0,0,1,2.79-4.85v-1.54a5.63,5.63,0,0,1,0-9.72v-1.54a5.62,5.62,0,0,1,0-9.71v-1.54a5.62,5.62,0,0,1,0-9.71v-1.55a5.62,5.62,0,0,1-.27-9.54c-13.36-.15-26-11-26-24.42H1353.7c0,13.4-12.68,24.27-26,24.42a5.61,5.61,0,0,1-.28,9.54v1.55a5.61,5.61,0,0,1,0,9.71v1.54a5.61,5.61,0,0,1,0,9.71v1.54a5.62,5.62,0,0,1,0,9.72v1.54a5.61,5.61,0,0,1,.63,9.29c13.2.33,25.69,11.13,25.69,24.41h155.64c0-13.28,12.49-24.08,25.69-24.41A5.61,5.61,0,0,1,1532.86,1458.23Z" transform="translate(-124.39 -121.54)"/><path class="cls-2" d="M1360.53,1480.9l-1-3.3a28.52,28.52,0,0,0-19.25-19.25l-3.3-1v-43.6l3.3-1a28.5,28.5,0,0,0,19.25-19.25l1-3.3h142l1,3.3a28.48,28.48,0,0,0,19.25,19.25l3.3,1v43.6l-3.3,1a28.5,28.5,0,0,0-19.25,19.25l-1,3.3Z" transform="translate(-124.39 -121.54)"/><path class="cls-31" d="M1364,1476.33A32.93,32.93,0,0,0,1341.6,1454v-36.73a33,33,0,0,0,22.36-22.37h135.11a33,33,0,0,0,22.37,22.37V1454a33,33,0,0,0-22.37,22.37Z" transform="translate(-124.39 -121.54)"/><path class="cls-5" d="M1390.93,1456.31v-16h-5.73V1437h15.34v3.26h-5.71v16Z" transform="translate(-124.39 -121.54)"/><path class="cls-5" d="M1402.93,1456.31V1437h3.9v19.29Z" transform="translate(-124.39 -121.54)"/><path class="cls-5" d="M1422.88,1449.22l3.78,1.2a8.47,8.47,0,0,1-2.89,4.69,9.1,9.1,0,0,1-11.44-1.09,10.05,10.05,0,0,1-2.47-7.18c0-3.21.82-5.71,2.48-7.49a8.55,8.55,0,0,1,6.54-2.66,8.08,8.08,0,0,1,5.76,2.09,7.7,7.7,0,0,1,2,3.56l-3.86.92a4,4,0,0,0-4.06-3.24,4.38,4.38,0,0,0-3.48,1.54c-.9,1-1.34,2.69-1.34,5s.44,4.17,1.32,5.21a4.26,4.26,0,0,0,3.42,1.55,3.91,3.91,0,0,0,2.67-1A5.7,5.7,0,0,0,1422.88,1449.22Z" transform="translate(-124.39 -121.54)"/><path class="cls-5" d="M1430.06,1456.31V1437H1434v8.57l7.87-8.57h5.24l-7.26,7.51,7.66,11.78h-5l-5.31-9-3.16,3.22v5.83Z" transform="translate(-124.39 -121.54)"/><path class="cls-5" d="M1449.47,1456.31V1437h14.31v3.26h-10.41v4.28h9.68v3.25h-9.68v5.25h10.77v3.25Z" transform="translate(-124.39 -121.54)"/><path class="cls-5" d="M1471.79,1456.31v-16h-5.72V1437h15.33v3.26h-5.71v16Z" transform="translate(-124.39 -121.54)"/><path class="cls-32" d="M1491.51,1427.35a1.37,1.37,0,0,1-1.37-1.37v-6.41a1.37,1.37,0,0,1,2.74,0V1426A1.37,1.37,0,0,1,1491.51,1427.35Zm0-12.81a1.37,1.37,0,0,1-1.37-1.37v-6.41a1.37,1.37,0,0,1,2.74,0v6.41A1.37,1.37,0,0,1,1491.51,1414.54Z" transform="translate(-124.39 -121.54)"/><path class="cls-32" d="M1491.51,1465.8a1.37,1.37,0,0,1-1.37-1.37V1458a1.37,1.37,0,0,1,2.74,0v6.41A1.37,1.37,0,0,1,1491.51,1465.8Zm0-12.81a1.37,1.37,0,0,1-1.37-1.38v-6.41a1.37,1.37,0,0,1,2.74,0v6.41A1.37,1.37,0,0,1,1491.51,1453Zm0-12.82a1.37,1.37,0,0,1-1.37-1.37v-6.41a1.37,1.37,0,0,1,2.74,0v6.41A1.37,1.37,0,0,1,1491.51,1440.17Z" transform="translate(-124.39 -121.54)"/><path class="cls-32" d="M1372.4,1427.35A1.37,1.37,0,0,1,1371,1426v-6.41a1.38,1.38,0,0,1,2.75,0V1426A1.37,1.37,0,0,1,1372.4,1427.35Zm0-12.81a1.37,1.37,0,0,1-1.37-1.37v-6.41a1.38,1.38,0,0,1,2.75,0v6.41A1.37,1.37,0,0,1,1372.4,1414.54Z" transform="translate(-124.39 -121.54)"/><path class="cls-32" d="M1372.4,1465.8a1.37,1.37,0,0,1-1.37-1.37V1458a1.38,1.38,0,0,1,2.75,0v6.41A1.37,1.37,0,0,1,1372.4,1465.8Zm0-12.81a1.38,1.38,0,0,1-1.37-1.38v-6.41a1.38,1.38,0,0,1,2.75,0v6.41A1.38,1.38,0,0,1,1372.4,1453Zm0-12.82a1.37,1.37,0,0,1-1.37-1.37v-6.41a1.38,1.38,0,0,1,2.75,0v6.41A1.37,1.37,0,0,1,1372.4,1440.17Z" transform="translate(-124.39 -121.54)"/><path class="cls-32" d="M1491.51,1401.72a1.37,1.37,0,0,0,1.37-1.37v-5.49h-2.74v5.49A1.37,1.37,0,0,0,1491.51,1401.72Z" transform="translate(-124.39 -121.54)"/><path class="cls-32" d="M1491.51,1469.46a1.37,1.37,0,0,0-1.37,1.38v5.49h2.74v-5.49A1.37,1.37,0,0,0,1491.51,1469.46Z" transform="translate(-124.39 -121.54)"/><path class="cls-32" d="M1372.4,1401.72a1.37,1.37,0,0,0,1.38-1.37v-5.49H1371v5.49A1.37,1.37,0,0,0,1372.4,1401.72Z" transform="translate(-124.39 -121.54)"/><path class="cls-32" d="M1372.4,1469.46a1.38,1.38,0,0,0-1.37,1.38v5.49h2.75v-5.49A1.38,1.38,0,0,0,1372.4,1469.46Z" transform="translate(-124.39 -121.54)"/><polygon class="cls-5" points="1308.33 1278.6 1311.98 1285.99 1320.13 1287.18 1314.23 1292.93 1315.62 1301.06 1308.33 1297.22 1301.03 1301.06 1302.42 1292.93 1296.52 1287.18 1304.68 1285.99 1308.33 1278.6"/><polygon class="cls-5" points="1337.03 1281.45 1340.67 1288.85 1348.83 1290.03 1342.93 1295.79 1344.32 1303.91 1337.03 1300.08 1329.73 1303.91 1331.12 1295.79 1325.22 1290.03 1333.38 1288.85 1337.03 1281.45"/><polygon class="cls-5" points="1280.41 1281.45 1284.06 1288.85 1292.22 1290.03 1286.31 1295.79 1287.71 1303.91 1280.41 1300.08 1273.11 1303.91 1274.51 1295.79 1268.6 1290.03 1276.76 1288.85 1280.41 1281.45"/><rect class="cls-32" x="1263.83" y="1340.41" width="90.15" height="4.72"/><rect class="cls-32" x="1284.19" y="1348.43" width="49.44" height="4.72"/><path class="cls-28" d="M1509.34,1487.08h-3.61C1508.05,1487.1,1509.34,1487.08,1509.34,1487.08Z" transform="translate(-124.39 -121.54)"/><path class="cls-29" d="M1327.66,1408.53a5.61,5.61,0,0,1-.28,9.54v1.55a5.61,5.61,0,0,1,0,9.71v1.54a5.61,5.61,0,0,1,0,9.71v1.54a5.62,5.62,0,0,1,0,9.72v1.54a5.61,5.61,0,0,1,.63,9.29c13.2.33,25.69,11.13,25.69,24.41h152c-16.73-.2-87.7-3.15-128.9-38.67-46.93-40.47,21.07-64.3,21.07-64.3h-44.2C1353.7,1397.51,1341,1408.38,1327.66,1408.53Z" transform="translate(-124.39 -121.54)"/></g><g id="camera"><path class="cls-2" d="M1626.74,1272.38a7,7,0,0,1-7-7v-35.14a7,7,0,0,1,7-7h29.14v-10.19h-81.62a30.77,30.77,0,0,1-30.74-30.74v-78H1515.3a7,7,0,0,1-7-7v-27.73l-10.72-10.52a7,7,0,0,1-2.1-5v-45.94a7,7,0,0,1,7-7h41v-.93A30.57,30.57,0,0,1,1553,978a88.24,88.24,0,0,1,42.22-156.79,6.91,6.91,0,0,1,3.36-.86H1780A88.19,88.19,0,0,1,1838.06,975a31,31,0,0,1,13.21,25.2v19.91l73.3-23.6a7.13,7.13,0,0,1,2.14-.33,7,7,0,0,1,7,7v134.35a7,7,0,0,1-7,7,7.13,7.13,0,0,1-2.14-.33l-73.3-23.6v61.72a30.78,30.78,0,0,1-30.75,30.74h-81v10.19h29.14a7,7,0,0,1,7,7v35.14a7,7,0,0,1-7,7Zm89.4-302.94a87.93,87.93,0,0,1-22.46-42.51,87.93,87.93,0,0,1-22.46,42.51Zm-44.41-121.18a88,88,0,0,1,22,42,88,88,0,0,1,22-42Z" transform="translate(-124.39 -121.54)"/><polygon class="cls-33" points="1634.91 948.81 1789.66 998.61 1789.66 948.81 1789.66 899 1634.91 948.81"/><g class="cls-18"><path d="M1914.05,1070.34v-49.8s-6.63,80-24.92,82-60.66-27.71-60.66-27.71-1.08,7.2-1.9,17.13l87.48,28.16Z" transform="translate(-124.39 -121.54)"/></g><path class="cls-2" d="M1780,827.37H1598.53v.49a81.26,81.26,0,1,0,54.23,13.4h81.83A81.22,81.22,0,1,0,1780,827.37Zm-102.94,82.21a69.91,69.91,0,1,1-69.9-69.91A69.9,69.9,0,0,1,1677.06,909.58Zm103.15,69.9a69.91,69.91,0,1,1,69.91-69.9A69.89,69.89,0,0,1,1780.21,979.48Z" transform="translate(-124.39 -121.54)"/><rect class="cls-2" x="1656.72" y="1170.67" width="81.9" height="61.99" transform="translate(2774.94 -617.55) rotate(90)"/><rect class="cls-33" x="1551.15" y="1048.03" width="44.27" height="64.18"/><rect class="cls-2" x="1683.9" y="1180.68" width="27.54" height="134.27" transform="translate(2821.09 -571.4) rotate(90)"/><rect class="cls-33" x="1692.77" y="1189.54" width="9.82" height="116.55" transform="translate(325.47 2823.95) rotate(-90)"/><polygon class="cls-16" points="1551.15 1104.51 1595.42 1088.68 1595.42 1054.88 1551.15 1054.88 1551.15 1104.51"/><path class="cls-2" d="M1733.9,1108.24c-7.9,0-14.09-5.3-14.09-12.07v-52.6c0-6.77,6.19-12.07,14.09-12.07h116.24c7.9,0,14.09-3.68,14.09,3.09V1105c0,6.76-6.19,3.26-14.09,3.26Z" transform="translate(-124.39 -121.54)"/><path class="cls-33" d="M1850.14,1099.38H1733.9c-2.89,0-5.23-1.44-5.23-3.2v-52.61c0-1.77,2.34-3.21,5.23-3.21h116.24c2.89,0,5.23,1.44,5.23,3.21v52.61C1855.37,1097.94,1853,1099.38,1850.14,1099.38Z" transform="translate(-124.39 -121.54)"/><path class="cls-16" d="M1842,1099.38H1725.72c-2.89,0-5.23-1.44-5.23-3.2v-52.61c0-1.77,2.34-3.21,5.23-3.21H1842c2.89,0,5.23,1.44,5.23,3.21v52.61C1847.19,1097.94,1844.85,1099.38,1842,1099.38Z" transform="translate(-124.39 -121.54)"/><polygon class="cls-2" points="1394.71 971.97 1394.71 943.51 1381.88 930.93 1381.88 890.38 1452.92 890.38 1452.92 971.97 1394.71 971.97"/><polygon class="cls-33" points="1403.57 963.11 1444.06 963.11 1444.06 899.24 1390.75 899.24 1390.75 927.21 1403.57 939.79 1403.57 963.11"/><polygon class="cls-16" points="1420.14 963.11 1460.64 963.11 1460.64 899.24 1420.39 899.24 1420.39 927.21 1420.14 939.79 1420.14 963.11"/><rect class="cls-2" x="1429.92" y="858.7" width="286.15" height="222.02" rx="19.95"/><rect class="cls-33" x="1438.78" y="867.57" width="268.43" height="204.29" rx="11.09"/><path class="cls-34" d="M1820.52,989.1H1574.26a11.09,11.09,0,0,0-11.08,11.09v6.25a11.08,11.08,0,0,1,11.08-11.08h246.26a11.08,11.08,0,0,1,11.09,11.08v-6.25A11.09,11.09,0,0,0,1820.52,989.1Z" transform="translate(-124.39 -121.54)"/><path class="cls-2" d="M1621.77,1105.34a20.7,20.7,0,1,1,20.69-20.69A20.72,20.72,0,0,1,1621.77,1105.34Z" transform="translate(-124.39 -121.54)"/><circle class="cls-35" cx="1497.38" cy="963.11" r="16.9"/><path class="cls-5" d="M1605.52,1085.72c0-9.33,7.85-16.9,17.53-16.9a17.89,17.89,0,0,1,8.84,2.32,16.87,16.87,0,0,0-23.62,23.64A16.32,16.32,0,0,1,1605.52,1085.72Z" transform="translate(-124.39 -121.54)"/><path class="cls-2" d="M1798.85,1014.44H1658.5a6.51,6.51,0,0,0-6.64,6.37v139.4a6.51,6.51,0,0,0,6.64,6.37h140.35a6.51,6.51,0,0,0,6.63-6.37v-139.4A6.51,6.51,0,0,0,1798.85,1014.44Zm1.57,145.77a1.54,1.54,0,0,1-1.57,1.5H1658.5a1.53,1.53,0,0,1-1.57-1.5v-139.4a1.53,1.53,0,0,1,1.57-1.5h140.35a1.54,1.54,0,0,1,1.57,1.5Z" transform="translate(-124.39 -121.54)"/><path class="cls-2" d="M1692.44,1078a16.9,16.9,0,1,1,16.89-16.9A16.92,16.92,0,0,1,1692.44,1078Z" transform="translate(-124.39 -121.54)"/><circle class="cls-35" cx="1692.44" cy="1061.06" r="13.8" transform="translate(249.59 2440.14) rotate(-80.78)"/><path class="cls-5" d="M1679.17,1061.93a14.06,14.06,0,0,1,14.31-13.79,14.6,14.6,0,0,1,7.22,1.89,13.78,13.78,0,0,0-19.29,19.3A13.39,13.39,0,0,1,1679.17,1061.93Z" transform="translate(-124.39 -121.54)"/><path class="cls-2" d="M1759.31,1078a16.9,16.9,0,1,1,16.89-16.9A16.92,16.92,0,0,1,1759.31,1078Z" transform="translate(-124.39 -121.54)"/><circle class="cls-35" cx="1759.31" cy="1061.06" r="13.8" transform="translate(198.03 2407.98) rotate(-76.72)"/><path class="cls-5" d="M1746,1061.93a14.06,14.06,0,0,1,14.31-13.79,14.6,14.6,0,0,1,7.22,1.89,13.78,13.78,0,0,0-19.29,19.3A13.39,13.39,0,0,1,1746,1061.93Z" transform="translate(-124.39 -121.54)"/><rect class="cls-19" x="1546.48" y="975.96" width="112.96" height="5.06"/><rect class="cls-19" x="1546.48" y="987.29" width="112.96" height="5.06"/><rect class="cls-19" x="1546.48" y="998.61" width="112.96" height="5.06"/><rect class="cls-19" x="1546.48" y="1009.94" width="112.96" height="5.06"/><rect class="cls-19" x="1546.48" y="1021.26" width="112.96" height="5.06"/><circle class="cls-2" cx="1482.96" cy="787.07" r="44.89"/><path class="cls-2" d="M1607.36,984.25A75.65,75.65,0,1,1,1683,908.61,75.73,75.73,0,0,1,1607.36,984.25Zm26.33-50.63a11.18,11.18,0,0,0-2.52,22.06,11.6,11.6,0,0,0,2.55.29,11.18,11.18,0,0,0,0-22.35Zm-52.76-.06c-.32,0-.64,0-1,0a11.17,11.17,0,0,0-10.19,12.07,11.22,11.22,0,0,0,11.11,10.23c.32,0,.64,0,1,0a11.17,11.17,0,0,0-.92-22.3Zm35.86-12.08a.18.18,0,0,0-.19.16.2.2,0,0,0,.15.25h0c.17,0,.22-.08.23-.15a.2.2,0,0,0-.15-.25Zm-18.91,0a.21.21,0,0,0-.19.22.24.24,0,0,0,.2.19.21.21,0,0,0,.22-.22.24.24,0,0,0-.2-.19Zm9.48-18a5,5,0,0,0-1.84,9.71,4.84,4.84,0,0,0,1.83.35,5,5,0,0,0,0-10.06Zm42.71-20a11.18,11.18,0,1,0,5.76,1.61A11.2,11.2,0,0,0,1650.07,883.42Zm-85.38-.11a11.18,11.18,0,1,0,10.3,6.85A11.09,11.09,0,0,0,1564.69,883.31Zm58,20.2a.19.19,0,0,0-.19.1.22.22,0,0,0,.08.29.17.17,0,0,0,.1,0,.18.18,0,0,0,.18-.1.22.22,0,0,0-.07-.29A.19.19,0,0,0,1622.66,903.51Zm-30.57,0-.08,0c-.06,0-.08,0-.11.11a.21.21,0,0,0,.2.29c.13,0,.16-.07.19-.13a.22.22,0,0,0,0-.16A.2.2,0,0,0,1592.09,903.47Zm15.27-11.07a.19.19,0,0,0-.13.05.22.22,0,0,0,0,.3.24.24,0,0,0,.16.07.24.24,0,0,0,.14-.05.23.23,0,0,0,0-.3A.24.24,0,0,0,1607.36,892.4Zm0-40a11.17,11.17,0,1,0,8.44,3.86A11.2,11.2,0,0,0,1607.34,852.39Z" transform="translate(-124.39 -121.54)"/><path class="cls-2" d="M1607.36,831.16a77.45,77.45,0,1,0,77.44,77.45A77.53,77.53,0,0,0,1607.36,831.16Zm.19,142.47a65.32,65.32,0,1,1,65.33-65.32A65.32,65.32,0,0,1,1607.55,973.63Z" transform="translate(-124.39 -121.54)"/><path class="cls-22" d="M1607.36,837.47a71.14,71.14,0,1,0,71.14,71.14A71.22,71.22,0,0,0,1607.36,837.47Zm19.32,68.68a4.71,4.71,0,1,1-1.59-6.46A4.67,4.67,0,0,1,1626.68,906.15Zm-29.6-54.43a15.67,15.67,0,1,1-1.58,22.11A15.68,15.68,0,0,1,1597.08,851.72Zm13.37,44.45a4.71,4.71,0,1,1,.47-6.65A4.73,4.73,0,0,1,1610.45,896.17Zm-22.72,5.73a4.66,4.66,0,0,1,2.54-2.56,4.59,4.59,0,0,1,1.82-.37,4.71,4.71,0,0,1,1.83,9,4.59,4.59,0,0,1-1.82.37,4.71,4.71,0,0,1-4.37-6.49Zm-37.49-1.34a15.67,15.67,0,1,1,20.52,8.38A15.67,15.67,0,0,1,1550.24,900.56Zm32,59.79a15.68,15.68,0,1,1,14.3-16.94A15.69,15.69,0,0,1,1582.23,960.35Zm16.07-34-.41,0a4.71,4.71,0,0,1-.39-9.41l.41,0a4.71,4.71,0,0,1,.39,9.41Zm5.58-9a9.53,9.53,0,1,1,12.35-5.4A9.55,9.55,0,0,1,1603.88,917.33Zm11.85,8.95a4.71,4.71,0,0,1,1.06-9.3,4.9,4.9,0,0,1,1.08.12,4.71,4.71,0,0,1-1.07,9.3A4.81,4.81,0,0,1,1615.73,926.28ZM1649,948.36a15.68,15.68,0,1,1-11.7-18.83A15.68,15.68,0,0,1,1649,948.36ZM1642,908a15.67,15.67,0,1,1,21.51-5.32A15.68,15.68,0,0,1,1642,908Z" transform="translate(-124.39 -121.54)"/><path class="cls-23" d="M1563.09,858.72c18.31-16.42,43.65-21.19,65.29-18.08a71.13,71.13,0,0,0-89.76,86.27C1536,903.45,1543.25,876.51,1563.09,858.72Z" transform="translate(-124.39 -121.54)"/><g class="cls-24"><path d="M1607.41,979.75a71.1,71.1,0,0,0,48.44-123.18,86,86,0,0,1,4.2,25.93,15.64,15.64,0,0,1-3.57,26.41,81.81,81.81,0,0,1-12.06,24.41,15.66,15.66,0,1,1-22.84,21.32c-33.24,19.08-69.55-2.13-70.55-2.72A71,71,0,0,0,1607.41,979.75Z" transform="translate(-124.39 -121.54)"/></g><circle class="cls-2" cx="1655.61" cy="787.07" r="44.89"/><path class="cls-2" d="M1780,984.25a75.65,75.65,0,1,1,75.64-75.64A75.72,75.72,0,0,1,1780,984.25Zm26.34-50.63a11.18,11.18,0,0,0-2.53,22.06,11.6,11.6,0,0,0,2.55.29,11.18,11.18,0,0,0,0-22.35Zm-52.77-.06c-.31,0-.63,0-1,0a11.17,11.17,0,0,0-10.2,12.07,11.23,11.23,0,0,0,11.12,10.23c.31,0,.63,0,1,0a11.17,11.17,0,0,0-.93-22.3Zm35.87-12.08a.2.2,0,0,0-.2.16.22.22,0,0,0,.16.25h0c.17,0,.21-.08.23-.15a.22.22,0,0,0-.16-.25Zm-18.91,0a.21.21,0,0,0-.19.22.22.22,0,0,0,.2.19.21.21,0,0,0,.21-.22.22.22,0,0,0-.2-.19Zm9.47-18a5,5,0,0,0-1.84,9.71,4.89,4.89,0,0,0,1.84.35,5,5,0,0,0,1.84-9.71A5.09,5.09,0,0,0,1780,903.42Zm42.71-20a11.18,11.18,0,1,0,5.76,1.61A11.11,11.11,0,0,0,1822.71,883.42Zm-85.38-.11a11.16,11.16,0,0,0-4.32.88,11.17,11.17,0,0,0,8.65,20.6,11.18,11.18,0,0,0-4.33-21.48Zm58,20.2a.17.17,0,0,0-.18.1.21.21,0,0,0,.07.29.19.19,0,0,0,.1,0,.21.21,0,0,0,.19-.1.22.22,0,0,0-.08-.29A.17.17,0,0,0,1795.3,903.51Zm-30.56,0-.08,0a.21.21,0,0,0-.11.27.2.2,0,0,0,.19.13c.14,0,.17-.07.19-.13a.15.15,0,0,0,0-.16A.18.18,0,0,0,1764.74,903.47ZM1780,892.4a.24.24,0,0,0-.14.05.23.23,0,0,0,0,.3.24.24,0,0,0,.16.07.19.19,0,0,0,.13-.05.21.21,0,0,0,0-.3A.21.21,0,0,0,1780,892.4Zm0-40a11.17,11.17,0,1,0,8.45,3.86A11.17,11.17,0,0,0,1780,852.39Z" transform="translate(-124.39 -121.54)"/><path class="cls-2" d="M1780,831.16a77.45,77.45,0,1,0,77.44,77.45A77.53,77.53,0,0,0,1780,831.16Zm.2,142.47a65.32,65.32,0,1,1,65.32-65.32A65.31,65.31,0,0,1,1780.2,973.63Z" transform="translate(-124.39 -121.54)"/><path class="cls-22" d="M1780,837.47a71.14,71.14,0,1,0,71.14,71.14A71.22,71.22,0,0,0,1780,837.47Zm19.33,68.68a4.67,4.67,0,0,1-4,2.28,4.72,4.72,0,0,1-4-7.15,4.69,4.69,0,0,1,4-2.27,4.62,4.62,0,0,1,2.43.68A4.71,4.71,0,0,1,1799.33,906.15Zm-29.61-54.43a15.68,15.68,0,1,1-1.57,22.11A15.68,15.68,0,0,1,1769.72,851.72Zm13.37,44.45a4.71,4.71,0,1,1,.48-6.65A4.7,4.7,0,0,1,1783.09,896.17Zm-22.71,5.73a4.63,4.63,0,0,1,2.54-2.56,4.56,4.56,0,0,1,1.82-.37,4.71,4.71,0,0,1,1.82,9,4.56,4.56,0,0,1-1.82.37,4.68,4.68,0,0,1-4.34-2.89A4.64,4.64,0,0,1,1760.38,901.9Zm-37.49-1.34a15.67,15.67,0,1,1,20.52,8.38A15.67,15.67,0,0,1,1722.89,900.56Zm32,59.79a15.68,15.68,0,1,1,14.3-16.94A15.68,15.68,0,0,1,1754.87,960.35Zm16.07-34-.4,0a4.71,4.71,0,0,1-.39-9.41l.4,0a4.71,4.71,0,0,1,.39,9.41Zm5.58-9a9.53,9.53,0,1,1,12.35-5.4A9.54,9.54,0,0,1,1776.52,917.33Zm11.85,8.95a4.71,4.71,0,0,1,1.07-9.3,5,5,0,0,1,1.08.12,4.71,4.71,0,0,1-1.07,9.3A5,5,0,0,1,1788.37,926.28Zm33.24,22.08a15.67,15.67,0,1,1-11.69-18.83A15.66,15.66,0,0,1,1821.61,948.36Zm-7-40.34a15.68,15.68,0,1,1,21.52-5.32A15.68,15.68,0,0,1,1814.6,908Z" transform="translate(-124.39 -121.54)"/><path class="cls-23" d="M1735.73,858.72c18.31-16.42,43.65-21.19,65.29-18.08a71.13,71.13,0,0,0-89.76,86.27C1708.67,903.45,1715.9,876.51,1735.73,858.72Z" transform="translate(-124.39 -121.54)"/><g class="cls-24"><path d="M1780.05,979.75a71.1,71.1,0,0,0,48.44-123.18,85.61,85.61,0,0,1,4.2,25.93,15.65,15.65,0,0,1-3.56,26.41,81.85,81.85,0,0,1-12.07,24.41,15.66,15.66,0,1,1-22.83,21.32c-33.25,19.08-69.56-2.13-70.55-2.72A71,71,0,0,0,1780.05,979.75Z" transform="translate(-124.39 -121.54)"/></g><rect class="cls-2" x="1477.93" y="709.63" width="177.67" height="6.3"/><g class="cls-18"><path d="M1574.26,1193.4h246.26a11.09,11.09,0,0,0,11.09-11.09V1008.38S1801.52,1126.27,1683,1150c-77.51,15.52-114.74-20.16-119.82-28.61v60.92A11.09,11.09,0,0,0,1574.26,1193.4Z" transform="translate(-124.39 -121.54)"/></g><circle class="cls-2" cx="1598.38" cy="1140.87" r="25.7" transform="translate(-462.96 1342.84) rotate(-45)"/><circle class="cls-35" cx="1598.38" cy="1140.87" r="21.91" transform="translate(-439.32 576.98) rotate(-22.5)"/><path class="cls-5" d="M1577.55,1143.65a21.9,21.9,0,0,1,41.8-9.13,21.9,21.9,0,1,0-40.86,15.48A21.82,21.82,0,0,1,1577.55,1143.65Z" transform="translate(-124.39 -121.54)"/></g><g id="megaphone"><path class="cls-2" d="M1776.86,1877.58a31.8,31.8,0,0,1-13-2.76L1727,1859.54a23.52,23.52,0,0,1,3-44.47,54.71,54.71,0,0,0,26.66-16,26.44,26.44,0,0,1-1.94-28.26l9.17-16.94a26.41,26.41,0,0,1,17.92-13.3L1618,1718.75a19.1,19.1,0,0,1-9,2.29,18.86,18.86,0,0,1-3.75-.38L1592,1718a19.06,19.06,0,0,1-13-27.76l31.85-58.8a30.07,30.07,0,0,1-9.2-38.92l14.88-27.46a30,30,0,0,1,37.62-13.56l32.12-59.3a19,19,0,0,1,30.36-4.26l9.45,9.65a19,19,0,0,1,5.38,11.69l112.3,129.23,61.6,33.36a29,29,0,0,1,15.1,24,30.25,30.25,0,0,1,4.34,34.68l-14.87,27.46a30,30,0,0,1-26.43,15.74,29.68,29.68,0,0,1-4.2-.31,28.75,28.75,0,0,1-23.19,3.82l-51.87,84.93A32.27,32.27,0,0,1,1776.86,1877.58Z" transform="translate(-124.39 -121.54)"/><path class="cls-2" d="M1798,1819a19.17,19.17,0,0,1-12.17-4.31l-20-16.14a19.46,19.46,0,0,1-4.89-24.4l9.17-16.93a19.45,19.45,0,0,1,29.31-5.88l17,13.71a19.35,19.35,0,0,1,6.33,21l-6.16,19.36A19.4,19.4,0,0,1,1798,1819Z" transform="translate(-124.39 -121.54)"/><path class="cls-6" d="M1807.87,1802.66l6.16-19.37a10.34,10.34,0,0,0-3.36-11.18l-17-13.71a10.33,10.33,0,0,0-15.58,3.12l-9.17,16.94a10.32,10.32,0,0,0,2.6,13l20,16.14A10.33,10.33,0,0,0,1807.87,1802.66Z" transform="translate(-124.39 -121.54)"/><path class="cls-2" d="M1776.86,1870.58a24.87,24.87,0,0,1-10.22-2.19l-36.94-15.32a16.52,16.52,0,0,1,2.12-31.23,62.11,62.11,0,0,0,37.39-27.82l63.86-104.56,51.45,27.87-86.27,141.25a25.21,25.21,0,0,1-21.39,12Z" transform="translate(-124.39 -121.54)"/><path class="cls-36" d="M1734.14,1830.65a7.41,7.41,0,0,0-1,14l37.07,15.38a16,16,0,0,0,20.23-6.2l81.27-133.07-35.42-19.19L1777,1798.76a71.55,71.55,0,0,1-42.84,31.89Z" transform="translate(-124.39 -121.54)"/><g class="cls-18"><path class="cls-19" d="M1790.48,1853.83l81.27-133.06-35.42-19.19-26.62,43.58,7.82,12.51a34.26,34.26,0,0,1-.79,37.52l-25.8,37.68a34.27,34.27,0,0,1-32.12,14.69l-25.64-2.9,37.07,15.38A16,16,0,0,0,1790.48,1853.83Z" transform="translate(-124.39 -121.54)"/></g><path class="cls-2" d="M1661.12,1649.71a9,9,0,0,1-4.32-1.1l-39.72-21.51a23.06,23.06,0,0,1-9.28-31.23l14.87-27.46a23,23,0,0,1,31.23-9.28l39.71,21.51a9.11,9.11,0,0,1,3.67,12.34l-28.14,52A9.09,9.09,0,0,1,1661.12,1649.71Z" transform="translate(-124.39 -121.54)"/><path class="cls-37" d="M1630.39,1571h48.39a0,0,0,0,1,0,0v59.1a0,0,0,0,1,0,0h-48.39a10.71,10.71,0,0,1-10.71-10.71v-37.67A10.71,10.71,0,0,1,1630.39,1571Z" transform="translate(836.98 -713.83) rotate(28.44)"/><path class="cls-2" d="M1883.49,1766.79a23.15,23.15,0,0,1-11-2.79l-47.71-25.84,36.81-68,47.72,25.85a23.07,23.07,0,0,1,9.29,31.23l-14.88,27.46A23,23,0,0,1,1883.49,1766.79Z" transform="translate(-124.39 -121.54)"/><path class="cls-36" d="M1858.38,1693h48.39a0,0,0,0,1,0,0v59.1a0,0,0,0,1,0,0h-48.39a10.71,10.71,0,0,1-10.71-10.71v-37.67A10.71,10.71,0,0,1,1858.38,1693Z" transform="translate(2583.02 4009.77) rotate(-151.56)"/><path class="cls-2" d="M1863.43,1771.25a22,22,0,0,1-10.46-2.66l-64.24-34.79a9.09,9.09,0,0,1-3.66-12.34l40.37-74.54a9.11,9.11,0,0,1,12.34-3.66l64.24,34.79a21.82,21.82,0,0,1,8.88,29.49l-28.38,52.38A21.66,21.66,0,0,1,1863.43,1771.25Z" transform="translate(-124.39 -121.54)"/><path class="cls-6" d="M1857.31,1760.59l-64.24-34.8,40.37-74.53,64.24,34.79a12.67,12.67,0,0,1,5.21,17.15l-28.37,52.39A12.68,12.68,0,0,1,1857.31,1760.59Z" transform="translate(-124.39 -121.54)"/><path class="cls-2" d="M1793.07,1734.9a9.67,9.67,0,0,1-1.2-.08l-180.62-24a9.1,9.1,0,0,1-6.8-13.36l101.73-187.8a9.09,9.09,0,0,1,7-4.71,8.22,8.22,0,0,1,1-.06,9.08,9.08,0,0,1,6.87,3.14l119.28,137.26a9.1,9.1,0,0,1,1.13,10.31l-40.38,74.56A9.13,9.13,0,0,1,1793.07,1734.9Z" transform="translate(-124.39 -121.54)"/><polygon class="cls-36" points="1709.06 1529.69 1688.87 1566.97 1668.68 1604.26 1488.06 1580.23 1589.79 1392.43 1709.06 1529.69"/><g class="cls-18"><path class="cls-19" d="M1793.07,1725.79l20.19-37.28,20.2-37.28-6.33,7.88a109.94,109.94,0,0,1-110.22,38.36c-32.35-7.39-68.85-15.67-91-20.49l-13.42,24.79Z" transform="translate(-124.39 -121.54)"/></g><path class="cls-2" d="M1609,1714a11.84,11.84,0,0,1-2.37-.24l-13.25-2.65a12.05,12.05,0,0,1-8.23-17.55l107.27-198a12.05,12.05,0,0,1,19.21-2.69l9.45,9.65a12,12,0,0,1,2,14.17l-103.48,191A12,12,0,0,1,1609,1714Z" transform="translate(-124.39 -121.54)"/><path class="cls-6" d="M1705.11,1499.23l9.46,9.65a3,3,0,0,1,.49,3.47l-.88,1.62-101.73,187.8-.87,1.62a3,3,0,0,1-3.17,1.49l-13.25-2.65a3,3,0,0,1-2-4.3l3.13-5.77,50.51-93.25,50.51-93.24,3.13-5.78A2.94,2.94,0,0,1,1705.11,1499.23Z" transform="translate(-124.39 -121.54)"/><g class="cls-18"><path class="cls-19" d="M1874.52,1755.59l28.37-52.39-22.76,21a54,54,0,0,1-49,12.93l-30.09-7,56.23,30.46A12.68,12.68,0,0,0,1874.52,1755.59Z" transform="translate(-124.39 -121.54)"/></g></g><g id="film"><path class="cls-2" d="M124.39,1688.57l93.7,93.69L451,1549.34l-93.7-93.7Zm197-192.1,6.8-6.81,10,10-6.81,6.8ZM283,1534.85l6.81-6.8,10,10-6.8,6.81Zm-38.38,38.39,6.8-6.81,10,10-6.81,6.8Zm-38.39,38.38,6.81-6.8,10,10-6.8,6.81ZM167.84,1650l6.8-6.81,10,10-6.81,6.8Zm-38.39,38.38,6.81-6.8,10,10-6.8,6.81Zm95.62,82-6.81,6.8-10-10,6.8-6.8Zm9.59-9.6-6.8,6.81-10-10,6.8-6.8ZM155.89,1682l-6.81,6.8-10-10,6.8-6.81Zm88.37,69.18-6.81,6.8-10-10,6.81-6.81Zm-78.78-78.78-6.8,6.8-10-10,6.8-6.8Zm88.38,69.18-6.81,6.8-10-10,6.8-6.8Zm-78.78-78.78-6.81,6.81-10-10,6.81-6.81ZM263.45,1732l-6.8,6.81-10-10,6.81-6.81Zm9.6-9.59-6.81,6.8-10-10,6.81-6.8Zm-78.78-78.78-6.8,6.81-10-10,6.81-6.8Zm88.37,69.18-6.8,6.81-10-10,6.8-6.8ZM203.87,1634l-6.81,6.81-10-10,6.81-6.81Zm88.37,69.19-6.8,6.8-10-10,6.81-6.81Zm-78.78-78.78-6.8,6.8-10-10,6.8-6.8Zm88.38,69.18-6.81,6.8-10-10,6.8-6.8Zm9.59-9.6-6.8,6.81-10-10,6.8-6.8Zm-78.77-78.77-6.81,6.8-10-10,6.8-6.81ZM321,1674.44l-6.81,6.8-10-10,6.81-6.81Zm-78.78-78.78-6.8,6.8-10-10,6.8-6.8Zm88.38,69.18-6.81,6.8-10-10,6.8-6.8Zm-78.78-78.78-6.81,6.81-10-10,6.81-6.81Zm88.37,69.18-6.8,6.81-10-10,6.81-6.81Zm9.6-9.59-6.81,6.8-10-10,6.81-6.81ZM271,1566.87l-6.8,6.81-10-10,6.81-6.8Zm88.37,69.18-6.8,6.81-10-10,6.8-6.8Zm-78.77-78.78-6.81,6.81-10-10,6.81-6.81ZM369,1626.45l-6.8,6.81-10-10,6.81-6.81Zm-78.78-78.77-6.8,6.8-10-10,6.8-6.8Zm88.38,69.18-6.81,6.8-10-10,6.8-6.8Zm9.59-9.6-6.8,6.81-10-10,6.8-6.8Zm-78.77-78.77-6.81,6.8-10-10,6.8-6.81Zm88.37,69.18-6.8,6.8-10-10,6.81-6.81ZM319,1518.89l-6.8,6.8-10-10,6.8-6.8Zm88.38,69.18-6.81,6.8-10-10,6.8-6.8Zm-78.78-78.78-6.81,6.81-10-10,6.81-6.81ZM417,1578.47l-6.8,6.81-10-10,6.81-6.81Zm9.6-9.59-6.81,6.8-10-10,6.81-6.81Zm-78.78-78.78-6.8,6.81-10-10,6.81-6.8Zm88.37,69.18-6.8,6.81-10-10,6.8-6.8Zm-78.77-78.78-6.81,6.81-10-10,6.81-6.81Zm88.37,69.18-6.8,6.81-10-10,6.81-6.81ZM367,1470.91l-6.8,6.8-10-10,6.8-6.8Z" transform="translate(-124.39 -121.54)"/><polygon class="cls-12" points="76.39 1521 132.17 1576.79 132.17 1465.22 76.39 1521"/><polygon class="cls-12" points="187.01 1410.38 146.98 1450.41 146.98 1577.08 215.75 1508.31 215.75 1439.12 187.01 1410.38"/><polygon class="cls-12" points="250.35 1473.71 230.55 1453.92 230.55 1493.51 250.35 1473.71"/><polygon class="cls-12" points="248.11 1349.28 230.55 1366.84 230.55 1445.66 254.48 1469.59 299.32 1424.74 299.32 1400.5 248.11 1349.28"/><polygon class="cls-12" points="191.14 1406.25 215.75 1430.86 215.75 1381.64 191.14 1406.25"/><polygon class="cls-12" points="72.26 1525.13 63.4 1533.98 63.4 1630.43 78.52 1645.55 132.17 1591.89 132.17 1585.05 72.26 1525.13"/><polygon class="cls-12" points="15.18 1582.21 48.6 1615.63 48.6 1548.79 15.18 1582.21"/><polygon class="cls-13" points="48.6 1548.79 48.6 1615.63 63.4 1630.43 63.4 1533.98 48.6 1548.79"/><polygon class="cls-13" points="132.17 1465.22 132.17 1576.79 139.72 1584.34 146.98 1577.08 146.98 1450.41 132.17 1465.22"/><polygon class="cls-13" points="132.17 1585.05 132.17 1591.89 135.59 1588.47 132.17 1585.05"/><polygon class="cls-13" points="215.75 1508.31 230.55 1493.51 230.55 1453.92 215.75 1439.12 215.75 1508.31"/><polygon class="cls-13" points="215.75 1381.64 215.75 1430.86 230.55 1445.66 230.55 1366.84 215.75 1381.64"/><polygon class="cls-13" points="299.32 1400.5 299.32 1424.74 311.44 1412.62 299.32 1400.5"/></g><g id="film-2" data-name="film"><path class="cls-2" d="M1369.7,649.16l0,69.82,173.59-.07,0-69.83Zm145,1.75h5.07v7.48h-5.08Zm-28.6,0h5.07v7.48h-5.07Zm-28.61,0h5.07v7.47h-5.07Zm-28.61,0h5.08v7.48h-5.07Zm-28.6,0h5.07v7.48h-5.07Zm-28.61,0h5.07v7.48h-5.07Zm5.1,66.18h-5.07v-7.48h5.07Zm7.15,0h-5.07v-7.48h5.07Zm0-58.7h-5.07V651h5.07Zm7.17,58.7H1386v-7.47h5.07Zm0-58.71H1386V651H1391Zm7.18,58.71h-5.07v-7.48h5.07Zm0-58.71h-5.07V651h5.07Zm7.18,58.71h-5.07v-7.48h5.07Zm7.15,0h-5.07v-7.47h5.07Zm0-58.7h-5.07V651h5.07Zm7.18,58.7h-5.07v-7.48h5.07Zm0-58.71h-5.08V651h5.07Zm7.17,58.71h-5.07v-7.48h5.07Zm0-58.71h-5.07V651h5.07Zm7.17,58.7h-5.07v-7.48H1434Zm7.16,0H1436v-7.47h5.07Zm0-58.71H1436V651h5.07Zm7.18,58.71h-5.07v-7.48h5.07Zm0-58.71h-5.07V651h5.07Zm7.18,58.7h-5.07v-7.48h5.07Zm0-58.7h-5.07v-7.48h5.07Zm7.18,58.7h-5.07v-7.47h5.07Zm7.15,0h-5.07v-7.48h5.07Zm0-58.71h-5.08v-7.47h5.07Zm7.17,58.7h-5.07v-7.48h5.07Zm0-58.7h-5.07v-7.48h5.07Zm7.17,58.7H1479v-7.47H1484Zm0-58.71h-5.07v-7.48H1484Zm7.18,58.71h-5.08v-7.48h5.07Zm7.15,0h-5.07v-7.48h5.07Zm0-58.71h-5.07v-7.48h5.07Zm7.18,58.7h-5.07v-7.47h5.07Zm0-58.7h-5.07v-7.48h5.07Zm7.18,58.7h-5.07v-7.48h5.07Zm0-58.71h-5.07v-7.47h5.07Zm7.18,58.71h-5.07v-7.48h5.07Zm7.15,0h-5.07v-7.48h5.07Zm0-58.7h-5.07v-7.48h5.07Zm7.17,58.7H1529v-7.47h5.07Zm0-58.71H1529v-7.48h5.08Zm7.18,58.71h-5.08v-7.48h5.07Zm0-58.71h-5.07v-7.47h5.07Z" transform="translate(-124.39 -121.54)"/><polygon class="cls-38" points="1290.93 538.91 1290.95 580.48 1332.5 538.89 1290.93 538.91"/><polygon class="cls-38" points="1373.37 538.88 1343.53 538.89 1296.36 586.11 1347.6 586.09 1373.38 560.29 1373.37 538.88"/><polygon class="cls-38" points="1373.39 586.08 1373.38 571.33 1358.64 586.08 1373.39 586.08"/><polygon class="cls-38" points="1418.9 538.86 1405.82 538.86 1376.46 568.25 1376.46 586.07 1409.89 586.06 1418.91 577.02 1418.9 538.86"/><polygon class="cls-38" points="1376.44 538.87 1376.45 557.21 1394.78 538.87 1376.44 538.87"/><polygon class="cls-38" points="1287.85 538.91 1281.25 538.91 1245.33 574.87 1245.33 586.13 1285.32 586.11 1287.87 583.56 1287.85 538.91"/><polygon class="cls-38" points="1245.31 538.93 1245.32 563.84 1270.22 538.92 1245.31 538.93"/><polygon class="cls-39" points="1270.22 538.92 1245.32 563.84 1245.33 574.87 1281.25 538.91 1270.22 538.92"/><polygon class="cls-39" points="1332.5 538.89 1290.95 580.48 1290.95 586.11 1296.36 586.11 1343.53 538.89 1332.5 538.89"/><polygon class="cls-13" points="1287.87 583.56 1285.32 586.11 1287.87 586.11 1287.87 583.56"/><polygon class="cls-39" points="1347.6 586.09 1358.64 586.08 1373.38 571.33 1373.38 560.29 1347.6 586.09"/><polygon class="cls-39" points="1394.78 538.87 1376.45 557.21 1376.46 568.25 1405.82 538.86 1394.78 538.87"/><polygon class="cls-39" points="1418.91 577.02 1409.89 586.06 1418.92 586.05 1418.91 577.02"/></g><g id="star"><path class="cls-2" d="M513.57,681a7,7,0,0,1-6.9-8.18l8.74-51-37-36.1a7,7,0,0,1,3.87-11.94l51.19-7.44L556.33,520a7,7,0,0,1,12.55,0l22.89,46.37L643,573.82a7,7,0,0,1,3.88,11.94l-37,36.1,8.74,51a7,7,0,0,1-10.16,7.38L562.6,656.15l-45.77,24.07A7,7,0,0,1,513.57,681Z" transform="translate(-124.39 -121.54)"/><polygon class="cls-40" points="366.97 461.84 421.57 461.84 416.2 454.69 366.97 461.84"/><polygon class="cls-41" points="431.05 485.96 402.59 496.56 394.18 545.59 439.94 487.45 431.4 482.3 431.05 485.96"/><polygon class="cls-40" points="509.45 461.84 460.23 454.69 438.21 410.08 431.58 489.41 509.45 461.84"/><polygon class="cls-40" points="438.21 478.18 438.21 484 436.06 481.14 433.34 485.33 438.21 492.9 438.64 491.88 482.24 545.59 473.83 496.56 438.21 478.18"/><polygon class="cls-40" points="432.02 475.76 431.4 482.3 433.34 485.33 436.06 481.14 432.02 475.76"/><polygon class="cls-41" points="431.58 484.69 473.83 496.56 509.45 461.84 492.99 467.19 431.58 484.69"/><polygon class="cls-40" points="431.4 482.3 424.05 470.88 431.08 474.5 421.57 461.84 366.97 461.84 402.59 496.56 431.05 485.96 431.4 482.3"/><polygon class="cls-40" points="433.34 461.84 421.57 461.84 431.08 474.5 432.09 475.02 433.34 461.84"/><polygon class="cls-41" points="421.57 461.84 433.34 461.84 432.09 475.02 438.04 478.1 438.21 477.84 438.21 410.08 416.2 454.69 421.57 461.84"/><polygon class="cls-40" points="436.06 481.14 438.21 484 438.21 478.18 438.04 478.1 436.06 481.14"/><polygon class="cls-40" points="431.08 474.5 432.02 475.76 432.09 475.02 431.08 474.5"/><polygon class="cls-40" points="432.09 475.02 432.02 475.76 436.06 481.14 438.04 478.1 432.09 475.02"/><polygon class="cls-40" points="424.05 470.88 431.4 482.3 432.02 475.76 431.08 474.5 424.05 470.88"/><polygon class="cls-42" points="438.04 478.1 438.21 478.18 438.21 477.84 438.04 478.1"/><polygon class="cls-41" points="482.24 545.59 440.17 486.65 438.21 492.9 438.21 492.9 438.21 522.45 438.21 522.45 482.24 545.59"/><polygon class="cls-40" points="434.45 487.05 436.6 487.45 394.18 545.59 438.21 522.45 438.21 492.9 438.21 481.58 434.45 487.05"/><polygon class="cls-40" points="410.82 493.89 383.43 467.19 421.28 461.69 438.21 427.39 455.14 461.69 492.99 467.19 465.6 493.89 472.07 531.59 438.21 513.79 404.36 531.59 410.82 493.89"/><polygon class="cls-43" points="492.99 467.11 491.39 466.87 482.19 477.63 492.99 467.11"/><polygon class="cls-43" points="450.7 452.61 409.66 500.57 408.64 506.55 452.19 455.64 450.7 452.61"/><polygon class="cls-43" points="478.23 464.96 435.16 515.3 438.21 513.7 439.88 514.58 481.87 465.49 478.23 464.96"/><polygon class="cls-43" points="438.21 427.31 421.28 461.61 383.43 467.11 403.91 487.11 444.19 440.03 438.21 427.31"/><polygon class="cls-43" points="454.31 522.17 472.07 531.5 467.77 506.44 454.31 522.17"/><polygon class="cls-43" points="466.06 496.48 447.26 518.46 450.08 519.94 466.74 500.47 466.06 496.48"/><polygon class="cls-43" points="445.29 441.64 405.28 488.4 407.51 490.57 446.78 444.67 445.29 441.64"/><polygon class="cls-2" points="421.28 461.61 416.2 451.71 413.81 454.03 421.28 461.61"/><polygon class="cls-2" points="410.82 493.89 399.88 496.48 400.7 499.49 410.82 493.89"/><polygon class="cls-2" points="455.14 461.69 463.77 454.69 460.23 451.71 455.14 461.69"/><polygon class="cls-2" points="465.6 493.89 476.87 495.67 475.51 499.49 465.6 493.89"/><polygon class="cls-2" points="438.21 513.7 440.56 524.61 436.6 524.61 438.21 513.7"/></g><g id="star-2" data-name="star"><path class="cls-2" d="M1361.62,1955.42a6.94,6.94,0,0,1-3.25-.8l-114.69-60.29L1129,1954.62a6.94,6.94,0,0,1-3.25.8,7,7,0,0,1-6.9-8.18l21.9-127.7L1048,1729.1a7,7,0,0,1,3.88-11.94l128.22-18.64,57.34-116.18a7,7,0,0,1,12.56,0l57.34,116.18,128.22,18.64a7,7,0,0,1,3.88,11.94l-92.78,90.44,21.9,127.7a7,7,0,0,1-6.9,8.18Z" transform="translate(-124.39 -121.54)"/><polygon class="cls-40" points="947.93 1608.88 1079.26 1608.88 1066.34 1591.67 947.93 1608.88"/><polygon class="cls-41" points="1102.06 1666.88 1033.61 1692.39 1013.38 1810.31 1123.44 1670.48 1102.89 1658.08 1102.06 1666.88"/><polygon class="cls-40" points="1290.64 1608.88 1172.24 1591.67 1119.29 1484.38 1103.35 1675.18 1290.64 1608.88"/><polygon class="cls-40" points="1119.29 1648.18 1119.29 1662.17 1114.12 1655.29 1107.58 1665.36 1119.29 1683.57 1120.33 1681.13 1225.19 1810.31 1204.96 1692.39 1119.29 1648.18"/><polygon class="cls-40" points="1104.39 1642.34 1102.89 1658.08 1107.58 1665.36 1114.12 1655.29 1104.39 1642.34"/><polygon class="cls-41" points="1103.35 1663.83 1204.96 1692.39 1290.64 1608.88 1251.04 1621.74 1103.35 1663.83"/><polygon class="cls-40" points="1102.89 1658.08 1085.23 1630.61 1102.13 1639.33 1079.26 1608.88 947.93 1608.88 1033.61 1692.39 1102.06 1666.88 1102.89 1658.08"/><polygon class="cls-40" points="1107.58 1608.88 1079.26 1608.88 1102.13 1639.33 1104.56 1640.58 1107.58 1608.88"/><polygon class="cls-41" points="1079.26 1608.88 1107.58 1608.88 1104.56 1640.58 1118.88 1647.97 1119.29 1647.35 1119.29 1484.38 1066.34 1591.67 1079.26 1608.88"/><polygon class="cls-40" points="1114.12 1655.29 1119.29 1662.17 1119.29 1648.18 1118.88 1647.97 1114.12 1655.29"/><polygon class="cls-40" points="1102.13 1639.33 1104.39 1642.34 1104.56 1640.58 1102.13 1639.33"/><polygon class="cls-40" points="1104.56 1640.58 1104.39 1642.34 1114.12 1655.29 1118.88 1647.97 1104.56 1640.58"/><polygon class="cls-40" points="1085.23 1630.61 1102.89 1658.08 1104.39 1642.34 1102.13 1639.33 1085.23 1630.61"/><polygon class="cls-42" points="1118.88 1647.97 1119.29 1648.18 1119.29 1647.35 1118.88 1647.97"/><polygon class="cls-41" points="1225.19 1810.31 1123.99 1668.54 1119.29 1683.57 1119.29 1683.57 1119.29 1754.64 1119.29 1754.64 1225.19 1810.31"/><polygon class="cls-40" points="1110.24 1669.51 1115.41 1670.48 1013.38 1810.31 1119.29 1754.64 1119.29 1683.57 1119.29 1656.36 1110.24 1669.51"/><polygon class="cls-40" points="1053.41 1685.96 987.53 1621.74 1078.57 1608.52 1119.29 1526.02 1160 1608.52 1251.04 1621.74 1185.16 1685.96 1200.71 1776.63 1119.29 1733.82 1037.86 1776.63 1053.41 1685.96"/><polygon class="cls-43" points="1251.04 1621.53 1247.2 1620.98 1225.06 1646.86 1251.04 1621.53"/><polygon class="cls-43" points="1149.32 1586.66 1050.62 1702.03 1048.15 1716.41 1152.92 1593.96 1149.32 1586.66"/><polygon class="cls-43" points="1215.55 1616.38 1111.95 1737.46 1119.29 1733.61 1123.29 1735.71 1224.3 1617.65 1215.55 1616.38"/><polygon class="cls-43" points="1119.29 1525.81 1078.57 1608.31 987.53 1621.53 1036.79 1669.65 1133.67 1556.41 1119.29 1525.81"/><polygon class="cls-43" points="1158.01 1753.97 1200.71 1776.42 1190.38 1716.14 1158.01 1753.97"/><polygon class="cls-43" points="1186.27 1692.2 1141.05 1745.05 1147.84 1748.62 1187.91 1701.78 1186.27 1692.2"/><polygon class="cls-43" points="1136.3 1560.29 1040.08 1672.75 1045.44 1677.98 1139.9 1567.58 1136.3 1560.29"/><polygon class="cls-2" points="1078.57 1608.31 1066.34 1584.51 1060.61 1590.09 1078.57 1608.31"/><polygon class="cls-2" points="1053.41 1685.96 1027.08 1692.2 1029.05 1699.43 1053.41 1685.96"/><polygon class="cls-2" points="1160 1608.52 1180.75 1591.67 1172.24 1584.51 1160 1608.52"/><polygon class="cls-2" points="1185.16 1685.96 1212.27 1690.24 1208.99 1699.43 1185.16 1685.96"/><polygon class="cls-2" points="1119.29 1733.61 1124.93 1759.85 1115.41 1759.85 1119.29 1733.61"/></g></g></g></svg>